<svg width="413" height="149" viewBox="0 0 413 149" fill="none" xmlns="http://www.w3.org/2000/svg">
<path d="M1.312 3.544H5.488C6.23467 3.544 6.896 3.69867 7.472 4.008C8.05867 4.31733 8.512 4.74933 8.832 5.304C9.152 5.848 9.312 6.46667 9.312 7.16C9.312 7.896 9.07733 8.552 8.608 9.128C8.14933 9.69333 7.568 10.104 6.864 10.36L6.848 10.472L9.92 14.872V15H7.44L4.48 10.696H3.472V15H1.312V3.544ZM5.472 8.712C5.96267 8.712 6.36267 8.56267 6.672 8.264C6.98133 7.96533 7.136 7.58667 7.136 7.128C7.136 6.69067 6.98667 6.31733 6.688 6.008C6.4 5.69867 6.00533 5.544 5.504 5.544H3.472V8.712H5.472ZM13.5356 15.256C12.6716 15.256 11.9623 15.0053 11.4076 14.504C10.853 13.992 10.5756 13.3253 10.5756 12.504C10.5756 11.96 10.7196 11.48 11.0076 11.064C11.2956 10.648 11.6903 10.328 12.1916 10.104C12.693 9.88 13.2476 9.768 13.8556 9.768C14.6983 9.768 15.4183 9.89067 16.0156 10.136V9.784C16.0156 9.336 15.845 8.97333 15.5036 8.696C15.173 8.41867 14.725 8.28 14.1596 8.28C13.7756 8.28 13.4023 8.37067 13.0396 8.552C12.6876 8.72267 12.3943 8.952 12.1596 9.24L10.8156 8.184C11.2103 7.672 11.7063 7.27733 12.3036 7C12.901 6.72267 13.5516 6.584 14.2556 6.584C15.5036 6.584 16.453 6.872 17.1036 7.448C17.7543 8.024 18.0796 8.86667 18.0796 9.976V15H16.0156V14.168H15.8876C15.6423 14.488 15.317 14.7493 14.9116 14.952C14.517 15.1547 14.0583 15.256 13.5356 15.256ZM14.0316 13.624C14.6396 13.624 15.1196 13.432 15.4716 13.048C15.8343 12.6533 16.0156 12.1947 16.0156 11.672C15.4716 11.416 14.901 11.288 14.3036 11.288C13.2156 11.288 12.6716 11.6933 12.6716 12.504C12.6716 12.8347 12.789 13.1067 13.0236 13.32C13.2583 13.5227 13.5943 13.624 14.0316 13.624ZM23.7703 15.256C22.9489 15.256 22.2129 15.0747 21.5623 14.712C20.9116 14.3387 20.3996 13.8213 20.0263 13.16C19.6636 12.4987 19.4823 11.752 19.4823 10.92C19.4823 10.088 19.6636 9.34667 20.0263 8.696C20.3996 8.03467 20.9116 7.51733 21.5623 7.144C22.2129 6.77067 22.9489 6.584 23.7703 6.584C24.6769 6.584 25.4556 6.78133 26.1063 7.176C26.7569 7.56 27.2263 8.10933 27.5143 8.824L25.5943 9.624C25.2529 8.89867 24.6449 8.536 23.7703 8.536C23.1303 8.536 22.6023 8.75467 22.1863 9.192C21.7809 9.62933 21.5783 10.2053 21.5783 10.92C21.5783 11.6453 21.7809 12.2267 22.1863 12.664C22.6023 13.1013 23.1303 13.32 23.7703 13.32C24.6556 13.32 25.2956 12.936 25.6903 12.168L27.5943 13C27.2423 13.7147 26.7409 14.2693 26.0903 14.664C25.4396 15.0587 24.6663 15.256 23.7703 15.256ZM32.848 15.256C32.0373 15.256 31.3067 15.0693 30.656 14.696C30.0053 14.3227 29.4933 13.8107 29.12 13.16C28.7573 12.4987 28.576 11.7573 28.576 10.936C28.576 10.1573 28.7573 9.43733 29.12 8.776C29.4827 8.104 29.984 7.57067 30.624 7.176C31.264 6.78133 31.9787 6.584 32.768 6.584C33.6107 6.584 34.336 6.76533 34.944 7.128C35.552 7.49067 36.0107 7.98667 36.32 8.616C36.64 9.24533 36.8 9.944 36.8 10.712C36.8 10.9573 36.784 11.192 36.752 11.416H30.624C30.7307 12.0667 30.9867 12.5627 31.392 12.904C31.808 13.2347 32.304 13.4 32.88 13.4C33.36 13.4 33.7707 13.2987 34.112 13.096C34.464 12.8827 34.7413 12.6 34.944 12.248L36.64 13.08C35.808 14.5307 34.544 15.256 32.848 15.256ZM34.784 9.928C34.7627 9.672 34.6667 9.42133 34.496 9.176C34.336 8.92 34.1067 8.712 33.808 8.552C33.52 8.38133 33.1787 8.296 32.784 8.296C32.2827 8.296 31.8507 8.44533 31.488 8.744C31.136 9.032 30.88 9.42667 30.72 9.928H34.784ZM41.5968 15.256C40.6048 15.256 39.7994 15.0533 39.1808 14.648C38.5728 14.2427 38.1461 13.7147 37.9008 13.064L39.7728 12.248C39.9434 12.632 40.1834 12.9253 40.4928 13.128C40.8128 13.32 41.1808 13.416 41.5968 13.416C41.9808 13.416 42.3008 13.3573 42.5568 13.24C42.8128 13.112 42.9408 12.9093 42.9408 12.632C42.9408 12.3653 42.8234 12.168 42.5888 12.04C42.3541 11.9013 42.0021 11.7787 41.5328 11.672L40.5728 11.464C39.9114 11.304 39.3621 11.016 38.9248 10.6C38.4874 10.1733 38.2688 9.64533 38.2688 9.016C38.2688 8.54667 38.4074 8.12533 38.6848 7.752C38.9728 7.37867 39.3568 7.09067 39.8368 6.888C40.3274 6.68533 40.8661 6.584 41.4528 6.584C43.1381 6.584 44.2634 7.176 44.8288 8.36L43.0368 9.144C42.7168 8.568 42.2048 8.28 41.5008 8.28C41.1381 8.28 40.8501 8.34933 40.6368 8.488C40.4234 8.616 40.3168 8.78133 40.3168 8.984C40.3168 9.368 40.6794 9.656 41.4048 9.848L42.6048 10.136C43.4154 10.3387 44.0234 10.648 44.4288 11.064C44.8448 11.48 45.0528 11.992 45.0528 12.6C45.0528 13.1227 44.8981 13.5867 44.5888 13.992C44.2901 14.3867 43.8741 14.696 43.3408 14.92C42.8181 15.144 42.2368 15.256 41.5968 15.256Z" fill="black"/>
<path d="M347.724 5.38H345.312V4.408H351.144V5.38H348.744V13H347.724V5.38ZM352.225 4.408H353.245V6.94L353.197 7.78H353.245C353.413 7.468 353.677 7.208 354.037 7C354.405 6.792 354.805 6.688 355.237 6.688C355.981 6.688 356.549 6.908 356.941 7.348C357.333 7.78 357.529 8.356 357.529 9.076V13H356.509V9.232C356.509 8.68 356.369 8.272 356.089 8.008C355.809 7.744 355.445 7.612 354.997 7.612C354.677 7.612 354.381 7.708 354.109 7.9C353.845 8.092 353.633 8.34 353.473 8.644C353.321 8.948 353.245 9.264 353.245 9.592V13H352.225V4.408ZM359.598 5.752C359.398 5.752 359.226 5.68 359.082 5.536C358.938 5.392 358.866 5.22 358.866 5.02C358.866 4.82 358.938 4.652 359.082 4.516C359.226 4.372 359.398 4.3 359.598 4.3C359.798 4.3 359.97 4.372 360.114 4.516C360.258 4.652 360.33 4.82 360.33 5.02C360.33 5.22 360.258 5.392 360.114 5.536C359.978 5.68 359.806 5.752 359.598 5.752ZM359.094 6.88H360.102V13H359.094V6.88ZM363.841 13.192C363.185 13.192 362.637 13.04 362.197 12.736C361.757 12.424 361.445 12.028 361.261 11.548L362.173 11.14C362.325 11.508 362.549 11.792 362.845 11.992C363.149 12.192 363.481 12.292 363.841 12.292C364.225 12.292 364.553 12.216 364.825 12.064C365.097 11.904 365.233 11.68 365.233 11.392C365.233 11.136 365.125 10.932 364.909 10.78C364.693 10.62 364.353 10.484 363.889 10.372L363.145 10.18C362.657 10.06 362.257 9.856 361.945 9.568C361.633 9.28 361.477 8.908 361.477 8.452C361.477 8.1 361.581 7.792 361.789 7.528C362.005 7.256 362.289 7.048 362.641 6.904C362.993 6.76 363.373 6.688 363.781 6.688C364.317 6.688 364.793 6.804 365.209 7.036C365.633 7.268 365.933 7.592 366.109 8.008L365.221 8.416C364.949 7.872 364.465 7.6 363.769 7.6C363.433 7.6 363.137 7.68 362.881 7.84C362.633 7.992 362.509 8.188 362.509 8.428C362.509 8.652 362.597 8.836 362.773 8.98C362.949 9.116 363.213 9.228 363.565 9.316L364.453 9.544C365.053 9.696 365.505 9.924 365.809 10.228C366.113 10.524 366.265 10.888 366.265 11.32C366.265 11.696 366.157 12.028 365.941 12.316C365.725 12.596 365.433 12.812 365.065 12.964C364.697 13.116 364.289 13.192 363.841 13.192ZM372.014 9.028L369.11 4.408H370.298L372.494 8.008H372.542L374.702 4.408H375.89L373.034 9.028V13H372.014V9.028ZM378.351 13.192C377.767 13.192 377.243 13.052 376.779 12.772C376.315 12.492 375.951 12.108 375.687 11.62C375.431 11.124 375.303 10.568 375.303 9.952C375.303 9.36 375.423 8.816 375.663 8.32C375.911 7.824 376.259 7.428 376.707 7.132C377.155 6.836 377.675 6.688 378.267 6.688C378.867 6.688 379.387 6.824 379.827 7.096C380.267 7.36 380.603 7.728 380.835 8.2C381.075 8.672 381.195 9.212 381.195 9.82C381.195 9.94 381.183 10.044 381.159 10.132H376.323C376.347 10.596 376.459 10.988 376.659 11.308C376.859 11.628 377.111 11.868 377.415 12.028C377.727 12.188 378.051 12.268 378.387 12.268C379.171 12.268 379.775 11.9 380.199 11.164L381.063 11.584C380.799 12.08 380.439 12.472 379.983 12.76C379.535 13.048 378.991 13.192 378.351 13.192ZM380.115 9.292C380.099 9.036 380.027 8.78 379.899 8.524C379.771 8.268 379.567 8.052 379.287 7.876C379.015 7.7 378.671 7.612 378.255 7.612C377.775 7.612 377.367 7.768 377.031 8.08C376.703 8.384 376.487 8.788 376.383 9.292H380.115ZM384.403 13.192C383.955 13.192 383.555 13.104 383.203 12.928C382.851 12.752 382.579 12.512 382.387 12.208C382.195 11.896 382.099 11.544 382.099 11.152C382.099 10.504 382.343 10 382.831 9.64C383.319 9.272 383.935 9.088 384.679 9.088C385.047 9.088 385.387 9.128 385.699 9.208C386.019 9.288 386.263 9.38 386.431 9.484V9.112C386.431 8.656 386.271 8.292 385.951 8.02C385.631 7.74 385.227 7.6 384.739 7.6C384.395 7.6 384.079 7.676 383.791 7.828C383.503 7.972 383.275 8.176 383.107 8.44L382.339 7.864C382.579 7.496 382.907 7.208 383.323 7C383.747 6.792 384.215 6.688 384.727 6.688C385.559 6.688 386.211 6.908 386.683 7.348C387.163 7.78 387.403 8.372 387.403 9.124V13H386.431V12.124H386.383C386.207 12.42 385.943 12.672 385.591 12.88C385.239 13.088 384.843 13.192 384.403 13.192ZM384.499 12.292C384.843 12.292 385.163 12.204 385.459 12.028C385.755 11.852 385.991 11.616 386.167 11.32C386.343 11.024 386.431 10.7 386.431 10.348C386.239 10.22 386.003 10.116 385.723 10.036C385.443 9.956 385.147 9.916 384.835 9.916C384.275 9.916 383.851 10.032 383.563 10.264C383.283 10.496 383.143 10.796 383.143 11.164C383.143 11.5 383.271 11.772 383.527 11.98C383.783 12.188 384.107 12.292 384.499 12.292ZM388.822 6.88H389.794V7.864H389.842C389.962 7.528 390.194 7.252 390.538 7.036C390.882 6.812 391.242 6.7 391.618 6.7C391.898 6.7 392.138 6.74 392.338 6.82V7.924C392.082 7.796 391.794 7.732 391.474 7.732C391.178 7.732 390.906 7.816 390.658 7.984C390.41 8.152 390.21 8.38 390.058 8.668C389.914 8.948 389.842 9.252 389.842 9.58V13H388.822V6.88Z" fill="black"/>
<path d="M412.5 8.5H405.5L409 12L412.5 8.5Z" fill="#C4C4C4"/>
<path d="M9.22 115.48H2.92V113.36L9 104.32H11.84V113.04H13.54V115.48H11.84V118H9.22V115.48ZM9.22 113.04V108.22H9.06L5.82 113.04H9.22ZM18.9995 118.32C18.0395 118.32 17.1795 118.14 16.4195 117.78C15.6729 117.42 15.0862 116.927 14.6595 116.3C14.2462 115.673 14.0395 114.973 14.0395 114.2C14.0395 113.453 14.2329 112.793 14.6195 112.22C15.0195 111.633 15.5195 111.18 16.1195 110.86V110.7C15.6529 110.38 15.2662 109.973 14.9595 109.48C14.6529 108.987 14.4995 108.447 14.4995 107.86C14.4995 107.14 14.6929 106.487 15.0795 105.9C15.4662 105.3 15.9995 104.833 16.6795 104.5C17.3729 104.167 18.1462 104 18.9995 104C19.8529 104 20.6195 104.167 21.2995 104.5C21.9795 104.833 22.5129 105.3 22.8995 105.9C23.2995 106.487 23.4995 107.14 23.4995 107.86C23.4995 108.46 23.3462 109.007 23.0395 109.5C22.7329 109.98 22.3395 110.38 21.8595 110.7V110.86C22.4595 111.18 22.9595 111.633 23.3595 112.22C23.7595 112.793 23.9595 113.453 23.9595 114.2C23.9595 114.973 23.7462 115.673 23.3195 116.3C22.9062 116.927 22.3195 117.42 21.5595 117.78C20.8129 118.14 19.9595 118.32 18.9995 118.32ZM18.9995 109.72C19.5595 109.72 20.0262 109.567 20.3995 109.26C20.7729 108.94 20.9595 108.527 20.9595 108.02C20.9595 107.513 20.7729 107.107 20.3995 106.8C20.0262 106.493 19.5595 106.34 18.9995 106.34C18.4262 106.34 17.9529 106.493 17.5795 106.8C17.2062 107.107 17.0195 107.513 17.0195 108.02C17.0195 108.527 17.2062 108.94 17.5795 109.26C17.9529 109.567 18.4262 109.72 18.9995 109.72ZM18.9995 115.9C19.6795 115.9 20.2329 115.72 20.6595 115.36C21.0995 115 21.3195 114.527 21.3195 113.94C21.3195 113.38 21.0995 112.92 20.6595 112.56C20.2195 112.2 19.6662 112.02 18.9995 112.02C18.3329 112.02 17.7729 112.2 17.3195 112.56C16.8795 112.92 16.6595 113.38 16.6595 113.94C16.6595 114.527 16.8795 115 17.3195 115.36C17.7595 115.72 18.3195 115.9 18.9995 115.9Z" fill="black"/>
<path d="M30.32 140.592H27.584V143.312H25.728V140.592H23.008V138.736H25.728V136.016H27.584V138.736H30.32V140.592ZM34.2838 135.792L32.6358 136.992L31.5798 135.376L34.7958 133.056H36.3798V144H34.2838V135.792ZM38.7695 142.096C39.1215 141.744 39.7988 141.067 40.8015 140.064C41.8148 139.051 42.4655 138.389 42.7535 138.08C43.1375 137.664 43.3988 137.317 43.5375 137.04C43.6868 136.763 43.7615 136.448 43.7615 136.096C43.7615 135.723 43.6228 135.408 43.3455 135.152C43.0682 134.896 42.7002 134.768 42.2415 134.768C41.7935 134.768 41.4308 134.896 41.1535 135.152C40.8762 135.408 40.6788 135.728 40.5615 136.112L38.6735 135.328C38.7908 134.912 39.0042 134.512 39.3135 134.128C39.6335 133.733 40.0442 133.413 40.5455 133.168C41.0468 132.923 41.6228 132.8 42.2735 132.8C42.9988 132.8 43.6335 132.944 44.1775 133.232C44.7215 133.509 45.1428 133.893 45.4415 134.384C45.7402 134.864 45.8895 135.403 45.8895 136C45.8895 137.184 45.3135 138.341 44.1615 139.472C43.6922 139.931 42.8228 140.795 41.5535 142.064L41.6015 142.16H46.0335V144H38.7695V142.096ZM50.3001 138.272C49.7668 138.272 49.2815 138.149 48.8441 137.904C48.4175 137.659 48.0815 137.328 47.8361 136.912C47.5908 136.496 47.4681 136.037 47.4681 135.536C47.4681 135.035 47.5908 134.576 47.8361 134.16C48.0815 133.744 48.4175 133.413 48.8441 133.168C49.2815 132.923 49.7668 132.8 50.3001 132.8C50.8228 132.8 51.2975 132.923 51.7241 133.168C52.1615 133.413 52.5028 133.744 52.7481 134.16C52.9935 134.576 53.1161 135.035 53.1161 135.536C53.1161 136.037 52.9935 136.496 52.7481 136.912C52.5028 137.328 52.1615 137.659 51.7241 137.904C51.2975 138.149 50.8228 138.272 50.3001 138.272ZM49.5001 143.408L56.6041 132.8L57.8681 133.648L50.7641 144.256L49.5001 143.408ZM50.3001 136.704C50.6201 136.704 50.8815 136.597 51.0841 136.384C51.2975 136.171 51.4041 135.888 51.4041 135.536C51.4041 135.184 51.2975 134.901 51.0841 134.688C50.8815 134.475 50.6201 134.368 50.3001 134.368C49.9908 134.368 49.7295 134.48 49.5161 134.704C49.3028 134.917 49.1961 135.195 49.1961 135.536C49.1961 135.877 49.3028 136.16 49.5161 136.384C49.7295 136.597 49.9908 136.704 50.3001 136.704ZM57.0841 144.256C56.5508 144.256 56.0655 144.133 55.6281 143.888C55.2015 143.643 54.8655 143.312 54.6201 142.896C54.3748 142.48 54.2521 142.021 54.2521 141.52C54.2521 141.019 54.3748 140.56 54.6201 140.144C54.8655 139.728 55.2015 139.397 55.6281 139.152C56.0655 138.907 56.5508 138.784 57.0841 138.784C57.6068 138.784 58.0815 138.907 58.5081 139.152C58.9455 139.397 59.2868 139.728 59.5321 140.144C59.7775 140.56 59.9001 141.019 59.9001 141.52C59.9001 142.021 59.7775 142.48 59.5321 142.896C59.2868 143.312 58.9455 143.643 58.5081 143.888C58.0815 144.133 57.6068 144.256 57.0841 144.256ZM57.0841 142.688C57.4041 142.688 57.6655 142.581 57.8681 142.368C58.0815 142.155 58.1881 141.872 58.1881 141.52C58.1881 141.168 58.0815 140.885 57.8681 140.672C57.6655 140.459 57.4041 140.352 57.0841 140.352C56.7748 140.352 56.5135 140.464 56.3001 140.688C56.0868 140.901 55.9801 141.179 55.9801 141.52C55.9801 141.861 56.0868 142.144 56.3001 142.368C56.5135 142.581 56.7748 142.688 57.0841 142.688Z" fill="#13CD3C"/>
<circle cx="9" cy="139" r="8.5" stroke="#13CD3C"/>
<path d="M5.5 141L8.1482 137.595C8.56725 137.056 9.39099 137.086 9.76961 137.654L12 141" stroke="#13CD3C"/>
<path d="M133.86 144.16C133.333 144.16 132.873 144.017 132.48 143.73C132.086 143.437 131.81 143.027 131.65 142.5L132.45 142.17C132.69 142.957 133.16 143.35 133.86 143.35C134.253 143.35 134.566 143.213 134.8 142.94C135.04 142.667 135.16 142.307 135.16 141.86V136.84H136.01V141.79C136.01 142.29 135.916 142.72 135.73 143.08C135.55 143.433 135.296 143.703 134.97 143.89C134.65 144.07 134.28 144.16 133.86 144.16ZM138.952 144.16C138.579 144.16 138.246 144.087 137.952 143.94C137.659 143.793 137.432 143.593 137.272 143.34C137.112 143.08 137.032 142.787 137.032 142.46C137.032 141.92 137.236 141.5 137.642 141.2C138.049 140.893 138.562 140.74 139.182 140.74C139.489 140.74 139.772 140.773 140.032 140.84C140.299 140.907 140.502 140.983 140.642 141.07V140.76C140.642 140.38 140.509 140.077 140.242 139.85C139.976 139.617 139.639 139.5 139.232 139.5C138.946 139.5 138.682 139.563 138.442 139.69C138.202 139.81 138.012 139.98 137.872 140.2L137.232 139.72C137.432 139.413 137.706 139.173 138.052 139C138.406 138.827 138.796 138.74 139.222 138.74C139.916 138.74 140.459 138.923 140.852 139.29C141.252 139.65 141.452 140.143 141.452 140.77V144H140.642V143.27H140.602C140.456 143.517 140.236 143.727 139.942 143.9C139.649 144.073 139.319 144.16 138.952 144.16ZM139.032 143.41C139.319 143.41 139.586 143.337 139.832 143.19C140.079 143.043 140.276 142.847 140.422 142.6C140.569 142.353 140.642 142.083 140.642 141.79C140.482 141.683 140.286 141.597 140.052 141.53C139.819 141.463 139.572 141.43 139.312 141.43C138.846 141.43 138.492 141.527 138.252 141.72C138.019 141.913 137.902 142.163 137.902 142.47C137.902 142.75 138.009 142.977 138.222 143.15C138.436 143.323 138.706 143.41 139.032 143.41ZM142.635 138.9H143.445V139.65H143.485C143.625 139.397 143.848 139.183 144.155 139.01C144.462 138.83 144.788 138.74 145.135 138.74C145.748 138.74 146.215 138.92 146.535 139.28C146.862 139.633 147.025 140.117 147.025 140.73V144H146.175V140.86C146.175 140.387 146.062 140.043 145.835 139.83C145.608 139.617 145.298 139.51 144.905 139.51C144.632 139.51 144.385 139.587 144.165 139.74C143.952 139.893 143.785 140.097 143.665 140.35C143.545 140.597 143.485 140.857 143.485 141.13V144H142.635V138.9Z" fill="#797C8C"/>
<path d="M356.881 136.84H357.841L360.561 144H359.631L358.911 142.03H355.821L355.101 144H354.171L356.881 136.84ZM358.621 141.23L357.671 138.65L357.381 137.88H357.341L357.061 138.65L356.111 141.23H358.621ZM362.936 144.16C362.323 144.16 361.853 143.98 361.526 143.62C361.206 143.26 361.046 142.757 361.046 142.11V138.9H361.896V141.98C361.896 142.467 362.006 142.823 362.226 143.05C362.446 143.277 362.743 143.39 363.116 143.39C363.403 143.39 363.656 143.313 363.876 143.16C364.103 143.007 364.276 142.807 364.396 142.56C364.523 142.313 364.586 142.053 364.586 141.78V138.9H365.436V144H364.626V143.26H364.586C364.446 143.513 364.223 143.727 363.916 143.9C363.609 144.073 363.283 144.16 362.936 144.16ZM368.883 146.32C368.283 146.32 367.786 146.18 367.393 145.9C367.006 145.62 366.746 145.283 366.613 144.89L367.383 144.56C367.496 144.853 367.683 145.09 367.943 145.27C368.209 145.457 368.523 145.55 368.883 145.55C369.409 145.55 369.816 145.397 370.103 145.09C370.396 144.783 370.543 144.35 370.543 143.79V143.22H370.503C370.336 143.48 370.099 143.693 369.793 143.86C369.493 144.02 369.149 144.1 368.763 144.1C368.323 144.1 367.919 143.987 367.553 143.76C367.193 143.533 366.906 143.217 366.693 142.81C366.479 142.403 366.373 141.94 366.373 141.42C366.373 140.907 366.479 140.447 366.693 140.04C366.906 139.627 367.193 139.307 367.553 139.08C367.919 138.853 368.323 138.74 368.763 138.74C369.149 138.74 369.493 138.823 369.793 138.99C370.099 139.15 370.336 139.363 370.503 139.63H370.543V138.9H371.353V143.8C371.353 144.62 371.126 145.243 370.673 145.67C370.219 146.103 369.623 146.32 368.883 146.32ZM368.883 143.33C369.189 143.33 369.466 143.253 369.713 143.1C369.966 142.947 370.166 142.727 370.313 142.44C370.466 142.153 370.543 141.813 370.543 141.42C370.543 141.02 370.466 140.677 370.313 140.39C370.166 140.103 369.966 139.887 369.713 139.74C369.466 139.587 369.189 139.51 368.883 139.51C368.576 139.51 368.296 139.587 368.043 139.74C367.789 139.893 367.586 140.113 367.433 140.4C367.286 140.687 367.213 141.027 367.213 141.42C367.213 141.813 367.286 142.157 367.433 142.45C367.586 142.737 367.789 142.957 368.043 143.11C368.296 143.257 368.576 143.33 368.883 143.33Z" fill="#797C8C"/>
<path d="M164.077 136.84H168.217V137.65H164.917V140.1H167.897V140.9H164.917V144H164.077V136.84ZM170.655 144.16C170.281 144.16 169.948 144.087 169.655 143.94C169.361 143.793 169.135 143.593 168.975 143.34C168.815 143.08 168.735 142.787 168.735 142.46C168.735 141.92 168.938 141.5 169.345 141.2C169.751 140.893 170.265 140.74 170.885 140.74C171.191 140.74 171.475 140.773 171.735 140.84C172.001 140.907 172.205 140.983 172.345 141.07V140.76C172.345 140.38 172.211 140.077 171.945 139.85C171.678 139.617 171.341 139.5 170.935 139.5C170.648 139.5 170.385 139.563 170.145 139.69C169.905 139.81 169.715 139.98 169.575 140.2L168.935 139.72C169.135 139.413 169.408 139.173 169.755 139C170.108 138.827 170.498 138.74 170.925 138.74C171.618 138.74 172.161 138.923 172.555 139.29C172.955 139.65 173.155 140.143 173.155 140.77V144H172.345V143.27H172.305C172.158 143.517 171.938 143.727 171.645 143.9C171.351 144.073 171.021 144.16 170.655 144.16ZM170.735 143.41C171.021 143.41 171.288 143.337 171.535 143.19C171.781 143.043 171.978 142.847 172.125 142.6C172.271 142.353 172.345 142.083 172.345 141.79C172.185 141.683 171.988 141.597 171.755 141.53C171.521 141.463 171.275 141.43 171.015 141.43C170.548 141.43 170.195 141.527 169.955 141.72C169.721 141.913 169.605 142.163 169.605 142.47C169.605 142.75 169.711 142.977 169.925 143.15C170.138 143.323 170.408 143.41 170.735 143.41ZM176.927 144.16C176.54 144.16 176.19 144.073 175.877 143.9C175.57 143.72 175.34 143.503 175.187 143.25H175.147V144H174.337V136.84H175.187V138.95L175.147 139.66H175.187C175.34 139.4 175.57 139.183 175.877 139.01C176.19 138.83 176.54 138.74 176.927 138.74C177.38 138.74 177.794 138.857 178.167 139.09C178.54 139.323 178.834 139.647 179.047 140.06C179.26 140.473 179.367 140.937 179.367 141.45C179.367 141.97 179.26 142.437 179.047 142.85C178.834 143.257 178.54 143.577 178.167 143.81C177.794 144.043 177.38 144.16 176.927 144.16ZM176.827 143.39C177.12 143.39 177.397 143.31 177.657 143.15C177.917 142.99 178.124 142.763 178.277 142.47C178.437 142.17 178.517 141.83 178.517 141.45C178.517 141.07 178.437 140.733 178.277 140.44C178.124 140.14 177.917 139.91 177.657 139.75C177.397 139.59 177.12 139.51 176.827 139.51C176.534 139.51 176.257 139.59 175.997 139.75C175.737 139.91 175.53 140.137 175.377 140.43C175.224 140.723 175.147 141.063 175.147 141.45C175.147 141.837 175.224 142.177 175.377 142.47C175.53 142.763 175.737 142.99 175.997 143.15C176.257 143.31 176.534 143.39 176.827 143.39Z" fill="#797C8C"/>
<path d="M389.192 144.16C388.632 144.16 388.118 143.99 387.652 143.65C387.185 143.31 386.865 142.833 386.692 142.22L387.502 141.89C387.615 142.317 387.825 142.667 388.132 142.94C388.438 143.213 388.798 143.35 389.212 143.35C389.625 143.35 389.975 143.24 390.262 143.02C390.548 142.793 390.692 142.487 390.692 142.1C390.692 141.767 390.568 141.493 390.322 141.28C390.082 141.06 389.685 140.857 389.132 140.67L388.682 140.51C388.175 140.33 387.762 140.093 387.442 139.8C387.122 139.507 386.962 139.1 386.962 138.58C386.962 138.24 387.055 137.927 387.242 137.64C387.428 137.347 387.688 137.113 388.022 136.94C388.355 136.767 388.728 136.68 389.142 136.68C389.555 136.68 389.915 136.757 390.222 136.91C390.528 137.063 390.772 137.25 390.952 137.47C391.138 137.69 391.268 137.907 391.342 138.12L390.542 138.46C390.475 138.213 390.322 137.99 390.082 137.79C389.848 137.59 389.538 137.49 389.152 137.49C388.785 137.49 388.472 137.593 388.212 137.8C387.952 138.007 387.822 138.267 387.822 138.58C387.822 138.86 387.932 139.09 388.152 139.27C388.372 139.443 388.705 139.607 389.152 139.76L389.622 139.92C390.228 140.14 390.702 140.417 391.042 140.75C391.382 141.077 391.552 141.523 391.552 142.09C391.552 142.55 391.432 142.937 391.192 143.25C390.958 143.563 390.662 143.793 390.302 143.94C389.942 144.087 389.572 144.16 389.192 144.16ZM394.897 144.16C394.41 144.16 393.974 144.043 393.587 143.81C393.2 143.577 392.897 143.257 392.677 142.85C392.464 142.437 392.357 141.973 392.357 141.46C392.357 140.967 392.457 140.513 392.657 140.1C392.864 139.687 393.154 139.357 393.527 139.11C393.9 138.863 394.334 138.74 394.827 138.74C395.327 138.74 395.76 138.853 396.127 139.08C396.494 139.3 396.774 139.607 396.967 140C397.167 140.393 397.267 140.843 397.267 141.35C397.267 141.45 397.257 141.537 397.237 141.61H393.207C393.227 141.997 393.32 142.323 393.487 142.59C393.654 142.857 393.864 143.057 394.117 143.19C394.377 143.323 394.647 143.39 394.927 143.39C395.58 143.39 396.084 143.083 396.437 142.47L397.157 142.82C396.937 143.233 396.637 143.56 396.257 143.8C395.884 144.04 395.43 144.16 394.897 144.16ZM396.367 140.91C396.354 140.697 396.294 140.483 396.187 140.27C396.08 140.057 395.91 139.877 395.677 139.73C395.45 139.583 395.164 139.51 394.817 139.51C394.417 139.51 394.077 139.64 393.797 139.9C393.524 140.153 393.344 140.49 393.257 140.91H396.367ZM398.222 138.9H399.032V139.66H399.072C399.225 139.4 399.455 139.183 399.762 139.01C400.075 138.83 400.425 138.74 400.812 138.74C401.265 138.74 401.679 138.857 402.052 139.09C402.425 139.323 402.719 139.647 402.932 140.06C403.145 140.473 403.252 140.937 403.252 141.45C403.252 141.97 403.145 142.437 402.932 142.85C402.719 143.257 402.425 143.577 402.052 143.81C401.679 144.043 401.265 144.16 400.812 144.16C400.425 144.16 400.075 144.073 399.762 143.9C399.455 143.72 399.225 143.503 399.072 143.25H399.032L399.072 143.95V146.16H398.222V138.9ZM400.712 143.39C401.005 143.39 401.282 143.31 401.542 143.15C401.802 142.99 402.009 142.763 402.162 142.47C402.322 142.17 402.402 141.83 402.402 141.45C402.402 141.07 402.322 140.733 402.162 140.44C402.009 140.14 401.802 139.91 401.542 139.75C401.282 139.59 401.005 139.51 400.712 139.51C400.419 139.51 400.142 139.59 399.882 139.75C399.622 139.91 399.415 140.137 399.262 140.43C399.109 140.723 399.032 141.063 399.032 141.45C399.032 141.837 399.109 142.177 399.262 142.47C399.415 142.763 399.622 142.99 399.882 143.15C400.142 143.31 400.419 143.39 400.712 143.39Z" fill="#797C8C"/>
<path d="M195.011 136.84H196.241L198.521 142.71H198.561L200.841 136.84H202.071V144H201.231V139.45L201.271 138.09H201.231L198.891 144H198.191L195.851 138.09H195.811L195.851 139.45V144H195.011V136.84ZM204.987 144.16C204.613 144.16 204.28 144.087 203.987 143.94C203.693 143.793 203.467 143.593 203.307 143.34C203.147 143.08 203.067 142.787 203.067 142.46C203.067 141.92 203.27 141.5 203.677 141.2C204.083 140.893 204.597 140.74 205.217 140.74C205.523 140.74 205.807 140.773 206.067 140.84C206.333 140.907 206.537 140.983 206.677 141.07V140.76C206.677 140.38 206.543 140.077 206.277 139.85C206.01 139.617 205.673 139.5 205.267 139.5C204.98 139.5 204.717 139.563 204.477 139.69C204.237 139.81 204.047 139.98 203.907 140.2L203.267 139.72C203.467 139.413 203.74 139.173 204.087 139C204.44 138.827 204.83 138.74 205.257 138.74C205.95 138.74 206.493 138.923 206.887 139.29C207.287 139.65 207.487 140.143 207.487 140.77V144H206.677V143.27H206.637C206.49 143.517 206.27 143.727 205.977 143.9C205.683 144.073 205.353 144.16 204.987 144.16ZM205.067 143.41C205.353 143.41 205.62 143.337 205.867 143.19C206.113 143.043 206.31 142.847 206.457 142.6C206.603 142.353 206.677 142.083 206.677 141.79C206.517 141.683 206.32 141.597 206.087 141.53C205.853 141.463 205.607 141.43 205.347 141.43C204.88 141.43 204.527 141.527 204.287 141.72C204.053 141.913 203.937 142.163 203.937 142.47C203.937 142.75 204.043 142.977 204.257 143.15C204.47 143.323 204.74 143.41 205.067 143.41ZM208.669 138.9H209.479V139.72H209.519C209.619 139.44 209.812 139.21 210.099 139.03C210.386 138.843 210.686 138.75 210.999 138.75C211.232 138.75 211.432 138.783 211.599 138.85V139.77C211.386 139.663 211.146 139.61 210.879 139.61C210.632 139.61 210.406 139.68 210.199 139.82C209.992 139.96 209.826 140.15 209.699 140.39C209.579 140.623 209.519 140.877 209.519 141.15V144H208.669V138.9Z" fill="#797C8C"/>
<path d="M230.152 136.84H231.112L233.832 144H232.902L232.182 142.03H229.092L228.372 144H227.442L230.152 136.84ZM231.892 141.23L230.942 138.65L230.652 137.88H230.612L230.332 138.65L229.382 141.23H231.892ZM234.62 138.9H235.43V139.66H235.47C235.624 139.4 235.854 139.183 236.16 139.01C236.474 138.83 236.824 138.74 237.21 138.74C237.664 138.74 238.077 138.857 238.45 139.09C238.824 139.323 239.117 139.647 239.33 140.06C239.544 140.473 239.65 140.937 239.65 141.45C239.65 141.97 239.544 142.437 239.33 142.85C239.117 143.257 238.824 143.577 238.45 143.81C238.077 144.043 237.664 144.16 237.21 144.16C236.824 144.16 236.474 144.073 236.16 143.9C235.854 143.72 235.624 143.503 235.47 143.25H235.43L235.47 143.95V146.16H234.62V138.9ZM237.11 143.39C237.404 143.39 237.68 143.31 237.94 143.15C238.2 142.99 238.407 142.763 238.56 142.47C238.72 142.17 238.8 141.83 238.8 141.45C238.8 141.07 238.72 140.733 238.56 140.44C238.407 140.14 238.2 139.91 237.94 139.75C237.68 139.59 237.404 139.51 237.11 139.51C236.817 139.51 236.54 139.59 236.28 139.75C236.02 139.91 235.814 140.137 235.66 140.43C235.507 140.723 235.43 141.063 235.43 141.45C235.43 141.837 235.507 142.177 235.66 142.47C235.814 142.763 236.02 142.99 236.28 143.15C236.54 143.31 236.817 143.39 237.11 143.39ZM240.588 138.9H241.398V139.72H241.438C241.538 139.44 241.731 139.21 242.018 139.03C242.305 138.843 242.605 138.75 242.918 138.75C243.151 138.75 243.351 138.783 243.518 138.85V139.77C243.305 139.663 243.065 139.61 242.798 139.61C242.551 139.61 242.325 139.68 242.118 139.82C241.911 139.96 241.745 140.15 241.618 140.39C241.498 140.623 241.438 140.877 241.438 141.15V144H240.588V138.9Z" fill="#797C8C"/>
<path d="M258.857 136.84H260.087L262.367 142.71H262.407L264.687 136.84H265.917V144H265.077V139.45L265.117 138.09H265.077L262.737 144H262.037L259.697 138.09H259.657L259.697 139.45V144H258.857V136.84ZM268.832 144.16C268.459 144.16 268.126 144.087 267.832 143.94C267.539 143.793 267.312 143.593 267.152 143.34C266.992 143.08 266.912 142.787 266.912 142.46C266.912 141.92 267.116 141.5 267.522 141.2C267.929 140.893 268.442 140.74 269.062 140.74C269.369 140.74 269.652 140.773 269.912 140.84C270.179 140.907 270.382 140.983 270.522 141.07V140.76C270.522 140.38 270.389 140.077 270.122 139.85C269.856 139.617 269.519 139.5 269.112 139.5C268.826 139.5 268.562 139.563 268.322 139.69C268.082 139.81 267.892 139.98 267.752 140.2L267.112 139.72C267.312 139.413 267.586 139.173 267.932 139C268.286 138.827 268.676 138.74 269.102 138.74C269.796 138.74 270.339 138.923 270.732 139.29C271.132 139.65 271.332 140.143 271.332 140.77V144H270.522V143.27H270.482C270.336 143.517 270.116 143.727 269.822 143.9C269.529 144.073 269.199 144.16 268.832 144.16ZM268.912 143.41C269.199 143.41 269.466 143.337 269.712 143.19C269.959 143.043 270.156 142.847 270.302 142.6C270.449 142.353 270.522 142.083 270.522 141.79C270.362 141.683 270.166 141.597 269.932 141.53C269.699 141.463 269.452 141.43 269.192 141.43C268.726 141.43 268.372 141.527 268.132 141.72C267.899 141.913 267.782 142.163 267.782 142.47C267.782 142.75 267.889 142.977 268.102 143.15C268.316 143.323 268.586 143.41 268.912 143.41ZM273.977 143.68L271.867 138.9H272.787L274.387 142.69H274.407L275.947 138.9H276.867L273.717 146.16H272.837L273.977 143.68Z" fill="#797C8C"/>
<path d="M293.762 144.16C293.235 144.16 292.775 144.017 292.382 143.73C291.989 143.437 291.712 143.027 291.552 142.5L292.352 142.17C292.592 142.957 293.062 143.35 293.762 143.35C294.155 143.35 294.469 143.213 294.702 142.94C294.942 142.667 295.062 142.307 295.062 141.86V136.84H295.912V141.79C295.912 142.29 295.819 142.72 295.632 143.08C295.452 143.433 295.199 143.703 294.872 143.89C294.552 144.07 294.182 144.16 293.762 144.16ZM298.977 144.16C298.364 144.16 297.894 143.98 297.567 143.62C297.247 143.26 297.087 142.757 297.087 142.11V138.9H297.937V141.98C297.937 142.467 298.047 142.823 298.267 143.05C298.487 143.277 298.784 143.39 299.157 143.39C299.444 143.39 299.697 143.313 299.917 143.16C300.144 143.007 300.317 142.807 300.437 142.56C300.564 142.313 300.627 142.053 300.627 141.78V138.9H301.477V144H300.667V143.26H300.627C300.487 143.513 300.264 143.727 299.957 143.9C299.65 144.073 299.324 144.16 298.977 144.16ZM302.733 138.9H303.543V139.65H303.583C303.723 139.397 303.946 139.183 304.253 139.01C304.559 138.83 304.886 138.74 305.233 138.74C305.846 138.74 306.313 138.92 306.633 139.28C306.959 139.633 307.123 140.117 307.123 140.73V144H306.273V140.86C306.273 140.387 306.159 140.043 305.933 139.83C305.706 139.617 305.396 139.51 305.003 139.51C304.729 139.51 304.483 139.587 304.263 139.74C304.049 139.893 303.883 140.097 303.763 140.35C303.643 140.597 303.583 140.857 303.583 141.13V144H302.733V138.9Z" fill="#797C8C"/>
<path d="M327.51 144.16C326.983 144.16 326.523 144.017 326.13 143.73C325.737 143.437 325.46 143.027 325.3 142.5L326.1 142.17C326.34 142.957 326.81 143.35 327.51 143.35C327.903 143.35 328.217 143.213 328.45 142.94C328.69 142.667 328.81 142.307 328.81 141.86V136.84H329.66V141.79C329.66 142.29 329.567 142.72 329.38 143.08C329.2 143.433 328.947 143.703 328.62 143.89C328.3 144.07 327.93 144.16 327.51 144.16ZM332.725 144.16C332.112 144.16 331.642 143.98 331.315 143.62C330.995 143.26 330.835 142.757 330.835 142.11V138.9H331.685V141.98C331.685 142.467 331.795 142.823 332.015 143.05C332.235 143.277 332.532 143.39 332.905 143.39C333.192 143.39 333.445 143.313 333.665 143.16C333.892 143.007 334.065 142.807 334.185 142.56C334.312 142.313 334.375 142.053 334.375 141.78V138.9H335.225V144H334.415V143.26H334.375C334.235 143.513 334.012 143.727 333.705 143.9C333.398 144.073 333.072 144.16 332.725 144.16ZM336.481 136.84H337.331V144H336.481V136.84Z" fill="#797C8C"/>
<rect x="127" y="101" width="28" height="24" rx="2" fill="#F5F0FF"/>
<rect x="351" y="101" width="28" height="24" rx="2" fill="#F5F0FF"/>
<rect x="159" y="91" width="28" height="34" rx="2" fill="#F5F0FF"/>
<rect x="383" y="91" width="28" height="34" rx="2" fill="#F5F0FF"/>
<rect x="191" y="111" width="28" height="14" rx="2" fill="#F5F0FF"/>
<rect x="223" y="78" width="28" height="47" rx="2" fill="#F5F0FF"/>
<rect x="255" y="91" width="28" height="34" rx="2" fill="#F5F0FF"/>
<rect x="319" y="83" width="28" height="42" rx="2" fill="#F5F0FF"/>
<rect x="287" y="55" width="28" height="70" rx="2" fill="#7947F7"/>
</svg>
