<svg width="418" height="149" viewBox="0 0 418 149" fill="none" xmlns="http://www.w3.org/2000/svg">
<path d="M1.312 3.544H8.576V5.592H3.472V8.248H8.064V10.296H3.472V12.952H8.576V15H1.312V3.544ZM10.3521 6.84H12.3201V7.864H12.4481C12.6935 7.46933 13.0401 7.16 13.4881 6.936C13.9361 6.70133 14.4215 6.584 14.9441 6.584C15.9255 6.584 16.6721 6.88267 17.1841 7.48C17.6961 8.07733 17.9521 8.89333 17.9521 9.928V15H15.8561V10.184C15.8561 9.66133 15.7228 9.256 15.4561 8.968C15.1895 8.68 14.8161 8.536 14.3361 8.536C13.7708 8.536 13.3121 8.75467 12.9601 9.192C12.6188 9.62933 12.4481 10.1787 12.4481 10.84V15H10.3521V6.84ZM23.6121 18.712C22.5775 18.712 21.7188 18.4773 21.0361 18.008C20.3535 17.5493 19.8948 16.9947 19.6601 16.344L21.6281 15.544C21.7988 15.9493 22.0601 16.2693 22.4121 16.504C22.7641 16.7387 23.1641 16.856 23.6121 16.856C24.2735 16.856 24.7961 16.6533 25.1801 16.248C25.5748 15.8427 25.7721 15.2667 25.7721 14.52V13.88H25.6441C25.3881 14.2427 25.0521 14.52 24.6361 14.712C24.2201 14.904 23.7455 15 23.2121 15C22.5401 15 21.9108 14.8293 21.3241 14.488C20.7481 14.136 20.2841 13.6453 19.9321 13.016C19.5801 12.376 19.4041 11.6347 19.4041 10.792C19.4041 9.94933 19.5801 9.21333 19.9321 8.584C20.2841 7.944 20.7481 7.45333 21.3241 7.112C21.9108 6.76 22.5401 6.584 23.2121 6.584C23.7455 6.584 24.2201 6.68 24.6361 6.872C25.0521 7.064 25.3881 7.34133 25.6441 7.704H25.7721V6.84H27.7881V14.44C27.7881 15.3147 27.6175 16.072 27.2761 16.712C26.9348 17.352 26.4495 17.8427 25.8201 18.184C25.1908 18.536 24.4548 18.712 23.6121 18.712ZM23.6441 13.096C24.2308 13.096 24.7321 12.8933 25.1481 12.488C25.5641 12.072 25.7721 11.5067 25.7721 10.792C25.7721 10.056 25.5641 9.49067 25.1481 9.096C24.7428 8.69067 24.2415 8.488 23.6441 8.488C23.0468 8.488 22.5401 8.69067 22.1241 9.096C21.7081 9.50133 21.5001 10.0667 21.5001 10.792C21.5001 11.5173 21.7081 12.0827 22.1241 12.488C22.5401 12.8933 23.0468 13.096 23.6441 13.096ZM31.0205 5.944C30.6472 5.944 30.3272 5.81067 30.0605 5.544C29.7938 5.27733 29.6605 4.95733 29.6605 4.584C29.6605 4.21067 29.7938 3.896 30.0605 3.64C30.3272 3.37333 30.6472 3.24 31.0205 3.24C31.3938 3.24 31.7085 3.37333 31.9645 3.64C32.2312 3.896 32.3645 4.21067 32.3645 4.584C32.3645 4.95733 32.2312 5.27733 31.9645 5.544C31.7085 5.81067 31.3938 5.944 31.0205 5.944ZM29.9645 6.84H32.0605V15H29.9645V6.84ZM34.2584 6.84H36.2264V7.864H36.3544C36.5997 7.46933 36.9464 7.16 37.3944 6.936C37.8424 6.70133 38.3277 6.584 38.8504 6.584C39.8317 6.584 40.5784 6.88267 41.0904 7.48C41.6024 8.07733 41.8584 8.89333 41.8584 9.928V15H39.7624V10.184C39.7624 9.66133 39.629 9.256 39.3624 8.968C39.0957 8.68 38.7224 8.536 38.2424 8.536C37.677 8.536 37.2184 8.75467 36.8664 9.192C36.525 9.62933 36.3544 10.1787 36.3544 10.84V15H34.2584V6.84ZM47.6605 15.256C46.8498 15.256 46.1192 15.0693 45.4685 14.696C44.8178 14.3227 44.3058 13.8107 43.9325 13.16C43.5698 12.4987 43.3885 11.7573 43.3885 10.936C43.3885 10.1573 43.5698 9.43733 43.9325 8.776C44.2952 8.104 44.7965 7.57067 45.4365 7.176C46.0765 6.78133 46.7912 6.584 47.5805 6.584C48.4232 6.584 49.1485 6.76533 49.7565 7.128C50.3645 7.49067 50.8232 7.98667 51.1325 8.616C51.4525 9.24533 51.6125 9.944 51.6125 10.712C51.6125 10.9573 51.5965 11.192 51.5645 11.416H45.4365C45.5432 12.0667 45.7992 12.5627 46.2045 12.904C46.6205 13.2347 47.1165 13.4 47.6925 13.4C48.1725 13.4 48.5832 13.2987 48.9245 13.096C49.2765 12.8827 49.5538 12.6 49.7565 12.248L51.4525 13.08C50.6205 14.5307 49.3565 15.256 47.6605 15.256ZM49.5965 9.928C49.5752 9.672 49.4792 9.42133 49.3085 9.176C49.1485 8.92 48.9192 8.712 48.6205 8.552C48.3325 8.38133 47.9912 8.296 47.5965 8.296C47.0952 8.296 46.6632 8.44533 46.3005 8.744C45.9485 9.032 45.6925 9.42667 45.5325 9.928H49.5965ZM57.2651 3.544H61.2971C62.0225 3.544 62.6838 3.69867 63.2811 4.008C63.8785 4.30667 64.3478 4.73333 64.6891 5.288C65.0305 5.832 65.2011 6.456 65.2011 7.16C65.2011 7.864 65.0305 8.49333 64.6891 9.048C64.3478 9.60267 63.8785 10.0347 63.2811 10.344C62.6838 10.6427 62.0225 10.792 61.2971 10.792H59.4251V15H57.2651V3.544ZM61.3611 8.744C61.8945 8.744 62.3105 8.58933 62.6091 8.28C62.9185 7.97067 63.0731 7.59733 63.0731 7.16C63.0731 6.72267 62.9185 6.35467 62.6091 6.056C62.3105 5.74667 61.8945 5.592 61.3611 5.592H59.4251V8.744H61.3611ZM70.0043 15.256C69.1936 15.256 68.4629 15.0693 67.8123 14.696C67.1616 14.3227 66.6496 13.8107 66.2763 13.16C65.9136 12.4987 65.7323 11.7573 65.7323 10.936C65.7323 10.1573 65.9136 9.43733 66.2763 8.776C66.6389 8.104 67.1403 7.57067 67.7803 7.176C68.4203 6.78133 69.1349 6.584 69.9243 6.584C70.7669 6.584 71.4923 6.76533 72.1003 7.128C72.7083 7.49067 73.1669 7.98667 73.4763 8.616C73.7963 9.24533 73.9563 9.944 73.9563 10.712C73.9563 10.9573 73.9403 11.192 73.9083 11.416H67.7803C67.8869 12.0667 68.1429 12.5627 68.5483 12.904C68.9643 13.2347 69.4603 13.4 70.0363 13.4C70.5163 13.4 70.9269 13.2987 71.2683 13.096C71.6203 12.8827 71.8976 12.6 72.1003 12.248L73.7963 13.08C72.9643 14.5307 71.7003 15.256 70.0043 15.256ZM71.9403 9.928C71.9189 9.672 71.8229 9.42133 71.6523 9.176C71.4923 8.92 71.2629 8.712 70.9643 8.552C70.6763 8.38133 70.3349 8.296 69.9403 8.296C69.4389 8.296 69.0069 8.44533 68.6443 8.744C68.2923 9.032 68.0363 9.42667 67.8763 9.928H71.9403ZM83.1869 8.632H81.7309V6.84H83.1869V6.392C83.1869 5.464 83.4642 4.73867 84.0189 4.216C84.5735 3.68267 85.2989 3.416 86.1949 3.416C86.6962 3.416 87.1442 3.47467 87.5389 3.592V5.64C87.3469 5.56533 87.1655 5.50667 86.9949 5.464C86.8349 5.41067 86.6589 5.384 86.4669 5.384C86.1149 5.384 85.8269 5.48533 85.6029 5.688C85.3895 5.89067 85.2829 6.168 85.2829 6.52V6.84H87.2829V8.632H85.2829V15H83.1869V8.632ZM75.5709 6.84H77.5389V7.928H77.6669C77.8802 7.53333 78.2055 7.21867 78.6429 6.984C79.0802 6.73867 79.5495 6.616 80.0509 6.616C80.4135 6.616 80.6695 6.648 80.8189 6.712V8.76C80.5522 8.65333 80.2215 8.6 79.8269 8.6C79.1655 8.6 78.6375 8.81333 78.2429 9.24C77.8589 9.66667 77.6669 10.248 77.6669 10.984V15H75.5709V6.84ZM92.3499 15.256C91.5072 15.256 90.7552 15.0693 90.0939 14.696C89.4325 14.312 88.9152 13.7947 88.5419 13.144C88.1792 12.4827 87.9979 11.7413 87.9979 10.92C87.9979 10.1093 88.1792 9.37333 88.5419 8.712C88.9152 8.05067 89.4325 7.53333 90.0939 7.16C90.7552 6.776 91.5072 6.584 92.3499 6.584C93.1819 6.584 93.9285 6.776 94.5899 7.16C95.2512 7.53333 95.7632 8.05067 96.1259 8.712C96.4992 9.37333 96.6859 10.1093 96.6859 10.92C96.6859 11.7413 96.4992 12.4827 96.1259 13.144C95.7632 13.7947 95.2512 14.312 94.5899 14.696C93.9285 15.0693 93.1819 15.256 92.3499 15.256ZM92.3499 13.32C92.7552 13.32 93.1285 13.224 93.4699 13.032C93.8112 12.84 94.0832 12.5627 94.2859 12.2C94.4885 11.8373 94.5899 11.4107 94.5899 10.92C94.5899 10.44 94.4885 10.0187 94.2859 9.656C94.0832 9.29333 93.8112 9.016 93.4699 8.824C93.1285 8.632 92.7552 8.536 92.3499 8.536C91.9445 8.536 91.5712 8.632 91.2299 8.824C90.8885 9.016 90.6112 9.29333 90.3979 9.656C90.1952 10.0187 90.0939 10.44 90.0939 10.92C90.0939 11.4 90.1952 11.8267 90.3979 12.2C90.6112 12.5627 90.8885 12.84 91.2299 13.032C91.5712 13.224 91.9445 13.32 92.3499 13.32ZM98.1334 6.84H100.101V7.928H100.229C100.432 7.544 100.747 7.22933 101.173 6.984C101.6 6.728 102.069 6.6 102.581 6.6C102.955 6.6 103.296 6.65867 103.605 6.776V8.872C103.317 8.76533 103.072 8.69067 102.869 8.648C102.677 8.59467 102.469 8.568 102.245 8.568C101.627 8.568 101.136 8.792 100.773 9.24C100.411 9.688 100.229 10.2533 100.229 10.936V15H98.1334V6.84ZM104.962 6.84H106.93V7.864H107.058C107.314 7.46933 107.655 7.16 108.082 6.936C108.519 6.70133 109.004 6.584 109.538 6.584C110.114 6.584 110.615 6.72267 111.042 7C111.468 7.26667 111.772 7.608 111.954 8.024C112.22 7.59733 112.583 7.25067 113.042 6.984C113.511 6.71733 114.06 6.584 114.69 6.584C115.618 6.584 116.322 6.872 116.802 7.448C117.292 8.01333 117.538 8.78133 117.538 9.752V15H115.458V10.136C115.458 9.624 115.335 9.22933 115.09 8.952C114.855 8.67467 114.524 8.536 114.098 8.536C113.554 8.536 113.116 8.75467 112.786 9.192C112.466 9.61867 112.306 10.184 112.306 10.888V15H110.21V10.136C110.21 9.624 110.082 9.22933 109.826 8.952C109.58 8.67467 109.228 8.536 108.77 8.536C108.258 8.536 107.842 8.75467 107.522 9.192C107.212 9.61867 107.058 10.184 107.058 10.888V15H104.962V6.84ZM121.958 15.256C121.094 15.256 120.384 15.0053 119.83 14.504C119.275 13.992 118.998 13.3253 118.998 12.504C118.998 11.96 119.142 11.48 119.43 11.064C119.718 10.648 120.112 10.328 120.614 10.104C121.115 9.88 121.67 9.768 122.278 9.768C123.12 9.768 123.84 9.89067 124.438 10.136V9.784C124.438 9.336 124.267 8.97333 123.926 8.696C123.595 8.41867 123.147 8.28 122.582 8.28C122.198 8.28 121.824 8.37067 121.462 8.552C121.11 8.72267 120.816 8.952 120.582 9.24L119.238 8.184C119.632 7.672 120.128 7.27733 120.726 7C121.323 6.72267 121.974 6.584 122.678 6.584C123.926 6.584 124.875 6.872 125.526 7.448C126.176 8.024 126.502 8.86667 126.502 9.976V15H124.438V14.168H124.31C124.064 14.488 123.739 14.7493 123.334 14.952C122.939 15.1547 122.48 15.256 121.958 15.256ZM122.454 13.624C123.062 13.624 123.542 13.432 123.894 13.048C124.256 12.6533 124.438 12.1947 124.438 11.672C123.894 11.416 123.323 11.288 122.726 11.288C121.638 11.288 121.094 11.6933 121.094 12.504C121.094 12.8347 121.211 13.1067 121.446 13.32C121.68 13.5227 122.016 13.624 122.454 13.624ZM128.43 6.84H130.398V7.864H130.526C130.772 7.46933 131.118 7.16 131.566 6.936C132.014 6.70133 132.5 6.584 133.022 6.584C134.004 6.584 134.75 6.88267 135.262 7.48C135.774 8.07733 136.03 8.89333 136.03 9.928V15H133.934V10.184C133.934 9.66133 133.801 9.256 133.534 8.968C133.268 8.68 132.894 8.536 132.414 8.536C131.849 8.536 131.39 8.75467 131.038 9.192C130.697 9.62933 130.526 10.1787 130.526 10.84V15H128.43V6.84ZM141.848 15.256C141.027 15.256 140.291 15.0747 139.64 14.712C138.99 14.3387 138.478 13.8213 138.104 13.16C137.742 12.4987 137.56 11.752 137.56 10.92C137.56 10.088 137.742 9.34667 138.104 8.696C138.478 8.03467 138.99 7.51733 139.64 7.144C140.291 6.77067 141.027 6.584 141.848 6.584C142.755 6.584 143.534 6.78133 144.184 7.176C144.835 7.56 145.304 8.10933 145.592 8.824L143.672 9.624C143.331 8.89867 142.723 8.536 141.848 8.536C141.208 8.536 140.68 8.75467 140.264 9.192C139.859 9.62933 139.656 10.2053 139.656 10.92C139.656 11.6453 139.859 12.2267 140.264 12.664C140.68 13.1013 141.208 13.32 141.848 13.32C142.734 13.32 143.374 12.936 143.768 12.168L145.672 13C145.32 13.7147 144.819 14.2693 144.168 14.664C143.518 15.0587 142.744 15.256 141.848 15.256ZM150.926 15.256C150.115 15.256 149.385 15.0693 148.734 14.696C148.083 14.3227 147.571 13.8107 147.198 13.16C146.835 12.4987 146.654 11.7573 146.654 10.936C146.654 10.1573 146.835 9.43733 147.198 8.776C147.561 8.104 148.062 7.57067 148.702 7.176C149.342 6.78133 150.057 6.584 150.846 6.584C151.689 6.584 152.414 6.76533 153.022 7.128C153.63 7.49067 154.089 7.98667 154.398 8.616C154.718 9.24533 154.878 9.944 154.878 10.712C154.878 10.9573 154.862 11.192 154.83 11.416H148.702C148.809 12.0667 149.065 12.5627 149.47 12.904C149.886 13.2347 150.382 13.4 150.958 13.4C151.438 13.4 151.849 13.2987 152.19 13.096C152.542 12.8827 152.819 12.6 153.022 12.248L154.718 13.08C153.886 14.5307 152.622 15.256 150.926 15.256ZM152.862 9.928C152.841 9.672 152.745 9.42133 152.574 9.176C152.414 8.92 152.185 8.712 151.886 8.552C151.598 8.38133 151.257 8.296 150.862 8.296C150.361 8.296 149.929 8.44533 149.566 8.744C149.214 9.032 148.958 9.42667 148.798 9.928H152.862Z" fill="black"/>
<path d="M348.724 5.38H346.312V4.408H352.144V5.38H349.744V13H348.724V5.38ZM353.225 4.408H354.245V6.94L354.197 7.78H354.245C354.413 7.468 354.677 7.208 355.037 7C355.405 6.792 355.805 6.688 356.237 6.688C356.981 6.688 357.549 6.908 357.941 7.348C358.333 7.78 358.529 8.356 358.529 9.076V13H357.509V9.232C357.509 8.68 357.369 8.272 357.089 8.008C356.809 7.744 356.445 7.612 355.997 7.612C355.677 7.612 355.381 7.708 355.109 7.9C354.845 8.092 354.633 8.34 354.473 8.644C354.321 8.948 354.245 9.264 354.245 9.592V13H353.225V4.408ZM360.598 5.752C360.398 5.752 360.226 5.68 360.082 5.536C359.938 5.392 359.866 5.22 359.866 5.02C359.866 4.82 359.938 4.652 360.082 4.516C360.226 4.372 360.398 4.3 360.598 4.3C360.798 4.3 360.97 4.372 361.114 4.516C361.258 4.652 361.33 4.82 361.33 5.02C361.33 5.22 361.258 5.392 361.114 5.536C360.978 5.68 360.806 5.752 360.598 5.752ZM360.094 6.88H361.102V13H360.094V6.88ZM364.841 13.192C364.185 13.192 363.637 13.04 363.197 12.736C362.757 12.424 362.445 12.028 362.261 11.548L363.173 11.14C363.325 11.508 363.549 11.792 363.845 11.992C364.149 12.192 364.481 12.292 364.841 12.292C365.225 12.292 365.553 12.216 365.825 12.064C366.097 11.904 366.233 11.68 366.233 11.392C366.233 11.136 366.125 10.932 365.909 10.78C365.693 10.62 365.353 10.484 364.889 10.372L364.145 10.18C363.657 10.06 363.257 9.856 362.945 9.568C362.633 9.28 362.477 8.908 362.477 8.452C362.477 8.1 362.581 7.792 362.789 7.528C363.005 7.256 363.289 7.048 363.641 6.904C363.993 6.76 364.373 6.688 364.781 6.688C365.317 6.688 365.793 6.804 366.209 7.036C366.633 7.268 366.933 7.592 367.109 8.008L366.221 8.416C365.949 7.872 365.465 7.6 364.769 7.6C364.433 7.6 364.137 7.68 363.881 7.84C363.633 7.992 363.509 8.188 363.509 8.428C363.509 8.652 363.597 8.836 363.773 8.98C363.949 9.116 364.213 9.228 364.565 9.316L365.453 9.544C366.053 9.696 366.505 9.924 366.809 10.228C367.113 10.524 367.265 10.888 367.265 11.32C367.265 11.696 367.157 12.028 366.941 12.316C366.725 12.596 366.433 12.812 366.065 12.964C365.697 13.116 365.289 13.192 364.841 13.192ZM373.014 9.028L370.11 4.408H371.298L373.494 8.008H373.542L375.702 4.408H376.89L374.034 9.028V13H373.014V9.028ZM379.351 13.192C378.767 13.192 378.243 13.052 377.779 12.772C377.315 12.492 376.951 12.108 376.687 11.62C376.431 11.124 376.303 10.568 376.303 9.952C376.303 9.36 376.423 8.816 376.663 8.32C376.911 7.824 377.259 7.428 377.707 7.132C378.155 6.836 378.675 6.688 379.267 6.688C379.867 6.688 380.387 6.824 380.827 7.096C381.267 7.36 381.603 7.728 381.835 8.2C382.075 8.672 382.195 9.212 382.195 9.82C382.195 9.94 382.183 10.044 382.159 10.132H377.323C377.347 10.596 377.459 10.988 377.659 11.308C377.859 11.628 378.111 11.868 378.415 12.028C378.727 12.188 379.051 12.268 379.387 12.268C380.171 12.268 380.775 11.9 381.199 11.164L382.063 11.584C381.799 12.08 381.439 12.472 380.983 12.76C380.535 13.048 379.991 13.192 379.351 13.192ZM381.115 9.292C381.099 9.036 381.027 8.78 380.899 8.524C380.771 8.268 380.567 8.052 380.287 7.876C380.015 7.7 379.671 7.612 379.255 7.612C378.775 7.612 378.367 7.768 378.031 8.08C377.703 8.384 377.487 8.788 377.383 9.292H381.115ZM385.403 13.192C384.955 13.192 384.555 13.104 384.203 12.928C383.851 12.752 383.579 12.512 383.387 12.208C383.195 11.896 383.099 11.544 383.099 11.152C383.099 10.504 383.343 10 383.831 9.64C384.319 9.272 384.935 9.088 385.679 9.088C386.047 9.088 386.387 9.128 386.699 9.208C387.019 9.288 387.263 9.38 387.431 9.484V9.112C387.431 8.656 387.271 8.292 386.951 8.02C386.631 7.74 386.227 7.6 385.739 7.6C385.395 7.6 385.079 7.676 384.791 7.828C384.503 7.972 384.275 8.176 384.107 8.44L383.339 7.864C383.579 7.496 383.907 7.208 384.323 7C384.747 6.792 385.215 6.688 385.727 6.688C386.559 6.688 387.211 6.908 387.683 7.348C388.163 7.78 388.403 8.372 388.403 9.124V13H387.431V12.124H387.383C387.207 12.42 386.943 12.672 386.591 12.88C386.239 13.088 385.843 13.192 385.403 13.192ZM385.499 12.292C385.843 12.292 386.163 12.204 386.459 12.028C386.755 11.852 386.991 11.616 387.167 11.32C387.343 11.024 387.431 10.7 387.431 10.348C387.239 10.22 387.003 10.116 386.723 10.036C386.443 9.956 386.147 9.916 385.835 9.916C385.275 9.916 384.851 10.032 384.563 10.264C384.283 10.496 384.143 10.796 384.143 11.164C384.143 11.5 384.271 11.772 384.527 11.98C384.783 12.188 385.107 12.292 385.499 12.292ZM389.822 6.88H390.794V7.864H390.842C390.962 7.528 391.194 7.252 391.538 7.036C391.882 6.812 392.242 6.7 392.618 6.7C392.898 6.7 393.138 6.74 393.338 6.82V7.924C393.082 7.796 392.794 7.732 392.474 7.732C392.178 7.732 391.906 7.816 391.658 7.984C391.41 8.152 391.21 8.38 391.058 8.668C390.914 8.948 390.842 9.252 390.842 9.58V13H389.822V6.88Z" fill="black"/>
<path d="M412.5 8.5H405.5L409 12L412.5 8.5Z" fill="#C4C4C4"/>
<path d="M7.88 118.32C6.92 118.32 6.06 118.14 5.3 117.78C4.55333 117.42 3.96667 116.927 3.54 116.3C3.12667 115.673 2.92 114.973 2.92 114.2C2.92 113.453 3.11333 112.793 3.5 112.22C3.9 111.633 4.4 111.18 5 110.86V110.7C4.53333 110.38 4.14667 109.973 3.84 109.48C3.53333 108.987 3.38 108.447 3.38 107.86C3.38 107.14 3.57333 106.487 3.96 105.9C4.34667 105.3 4.88 104.833 5.56 104.5C6.25333 104.167 7.02667 104 7.88 104C8.73333 104 9.5 104.167 10.18 104.5C10.86 104.833 11.3933 105.3 11.78 105.9C12.18 106.487 12.38 107.14 12.38 107.86C12.38 108.46 12.2267 109.007 11.92 109.5C11.6133 109.98 11.22 110.38 10.74 110.7V110.86C11.34 111.18 11.84 111.633 12.24 112.22C12.64 112.793 12.84 113.453 12.84 114.2C12.84 114.973 12.6267 115.673 12.2 116.3C11.7867 116.927 11.2 117.42 10.44 117.78C9.69333 118.14 8.84 118.32 7.88 118.32ZM7.88 109.72C8.44 109.72 8.90667 109.567 9.28 109.26C9.65333 108.94 9.84 108.527 9.84 108.02C9.84 107.513 9.65333 107.107 9.28 106.8C8.90667 106.493 8.44 106.34 7.88 106.34C7.30667 106.34 6.83333 106.493 6.46 106.8C6.08667 107.107 5.9 107.513 5.9 108.02C5.9 108.527 6.08667 108.94 6.46 109.26C6.83333 109.567 7.30667 109.72 7.88 109.72ZM7.88 115.9C8.56 115.9 9.11333 115.72 9.54 115.36C9.98 115 10.2 114.527 10.2 113.94C10.2 113.38 9.98 112.92 9.54 112.56C9.1 112.2 8.54667 112.02 7.88 112.02C7.21333 112.02 6.65333 112.2 6.2 112.56C5.76 112.92 5.54 113.38 5.54 113.94C5.54 114.527 5.76 115 6.2 115.36C6.64 115.72 7.2 115.9 7.88 115.9ZM19.5583 115.48H13.2583V113.36L19.3383 104.32H22.1783V113.04H23.8783V115.48H22.1783V118H19.5583V115.48ZM19.5583 113.04V108.22H19.3983L16.1583 113.04H19.5583ZM27.7978 110.84C27.1311 110.84 26.5245 110.687 25.9778 110.38C25.4445 110.073 25.0245 109.66 24.7178 109.14C24.4111 108.62 24.2578 108.047 24.2578 107.42C24.2578 106.793 24.4111 106.22 24.7178 105.7C25.0245 105.18 25.4445 104.767 25.9778 104.46C26.5245 104.153 27.1311 104 27.7978 104C28.4511 104 29.0445 104.153 29.5778 104.46C30.1245 104.767 30.5511 105.18 30.8578 105.7C31.1645 106.22 31.3178 106.793 31.3178 107.42C31.3178 108.047 31.1645 108.62 30.8578 109.14C30.5511 109.66 30.1245 110.073 29.5778 110.38C29.0445 110.687 28.4511 110.84 27.7978 110.84ZM26.7978 117.26L35.6778 104L37.2578 105.06L28.3778 118.32L26.7978 117.26ZM27.7978 108.88C28.1978 108.88 28.5245 108.747 28.7778 108.48C29.0445 108.213 29.1778 107.86 29.1778 107.42C29.1778 106.98 29.0445 106.627 28.7778 106.36C28.5245 106.093 28.1978 105.96 27.7978 105.96C27.4111 105.96 27.0845 106.1 26.8178 106.38C26.5511 106.647 26.4178 106.993 26.4178 107.42C26.4178 107.847 26.5511 108.2 26.8178 108.48C27.0845 108.747 27.4111 108.88 27.7978 108.88ZM36.2778 118.32C35.6111 118.32 35.0045 118.167 34.4578 117.86C33.9245 117.553 33.5045 117.14 33.1978 116.62C32.8911 116.1 32.7378 115.527 32.7378 114.9C32.7378 114.273 32.8911 113.7 33.1978 113.18C33.5045 112.66 33.9245 112.247 34.4578 111.94C35.0045 111.633 35.6111 111.48 36.2778 111.48C36.9311 111.48 37.5245 111.633 38.0578 111.94C38.6045 112.247 39.0311 112.66 39.3378 113.18C39.6445 113.7 39.7978 114.273 39.7978 114.9C39.7978 115.527 39.6445 116.1 39.3378 116.62C39.0311 117.14 38.6045 117.553 38.0578 117.86C37.5245 118.167 36.9311 118.32 36.2778 118.32ZM36.2778 116.36C36.6778 116.36 37.0045 116.227 37.2578 115.96C37.5245 115.693 37.6578 115.34 37.6578 114.9C37.6578 114.46 37.5245 114.107 37.2578 113.84C37.0045 113.573 36.6778 113.44 36.2778 113.44C35.8911 113.44 35.5645 113.58 35.2978 113.86C35.0311 114.127 34.8978 114.473 34.8978 114.9C34.8978 115.327 35.0311 115.68 35.2978 115.96C35.5645 116.227 35.8911 116.36 36.2778 116.36Z" fill="black"/>
<path d="M23.008 138.112H28.432V139.968H23.008V138.112ZM34.1415 144.256C33.3735 144.256 32.6855 144.112 32.0775 143.824C31.4802 143.536 31.0108 143.141 30.6695 142.64C30.3388 142.139 30.1735 141.579 30.1735 140.96C30.1735 140.363 30.3282 139.835 30.6375 139.376C30.9575 138.907 31.3575 138.544 31.8375 138.288V138.16C31.4642 137.904 31.1548 137.579 30.9095 137.184C30.6642 136.789 30.5415 136.357 30.5415 135.888C30.5415 135.312 30.6962 134.789 31.0055 134.32C31.3148 133.84 31.7415 133.467 32.2855 133.2C32.8402 132.933 33.4588 132.8 34.1415 132.8C34.8242 132.8 35.4375 132.933 35.9815 133.2C36.5255 133.467 36.9522 133.84 37.2615 134.32C37.5815 134.789 37.7415 135.312 37.7415 135.888C37.7415 136.368 37.6188 136.805 37.3735 137.2C37.1282 137.584 36.8135 137.904 36.4295 138.16V138.288C36.9095 138.544 37.3095 138.907 37.6295 139.376C37.9495 139.835 38.1095 140.363 38.1095 140.96C38.1095 141.579 37.9388 142.139 37.5975 142.64C37.2668 143.141 36.7975 143.536 36.1895 143.824C35.5922 144.112 34.9095 144.256 34.1415 144.256ZM34.1415 137.376C34.5895 137.376 34.9628 137.253 35.2615 137.008C35.5602 136.752 35.7095 136.421 35.7095 136.016C35.7095 135.611 35.5602 135.285 35.2615 135.04C34.9628 134.795 34.5895 134.672 34.1415 134.672C33.6828 134.672 33.3042 134.795 33.0055 135.04C32.7068 135.285 32.5575 135.611 32.5575 136.016C32.5575 136.421 32.7068 136.752 33.0055 137.008C33.3042 137.253 33.6828 137.376 34.1415 137.376ZM34.1415 142.32C34.6855 142.32 35.1282 142.176 35.4695 141.888C35.8215 141.6 35.9975 141.221 35.9975 140.752C35.9975 140.304 35.8215 139.936 35.4695 139.648C35.1175 139.36 34.6748 139.216 34.1415 139.216C33.6082 139.216 33.1602 139.36 32.7975 139.648C32.4455 139.936 32.2695 140.304 32.2695 140.752C32.2695 141.221 32.4455 141.6 32.7975 141.888C33.1495 142.176 33.5975 142.32 34.1415 142.32ZM41.1161 144.096C40.7321 144.096 40.4015 143.963 40.1241 143.696C39.8575 143.419 39.7241 143.088 39.7241 142.704C39.7241 142.32 39.8575 141.995 40.1241 141.728C40.4015 141.461 40.7321 141.328 41.1161 141.328C41.5001 141.328 41.8255 141.461 42.0921 141.728C42.3695 141.995 42.5081 142.32 42.5081 142.704C42.5081 143.088 42.3695 143.419 42.0921 143.696C41.8255 143.963 41.5001 144.096 41.1161 144.096ZM48.7983 144.256C47.8809 144.256 47.0756 144.011 46.3823 143.52C45.6889 143.019 45.1503 142.336 44.7663 141.472C44.3929 140.597 44.2063 139.616 44.2063 138.528C44.2063 137.44 44.3929 136.464 44.7663 135.6C45.1503 134.725 45.6889 134.043 46.3823 133.552C47.0756 133.051 47.8809 132.8 48.7983 132.8C49.7156 132.8 50.5209 133.051 51.2143 133.552C51.9076 134.043 52.4409 134.725 52.8142 135.6C53.1983 136.464 53.3903 137.44 53.3903 138.528C53.3903 139.616 53.1983 140.597 52.8142 141.472C52.4409 142.336 51.9076 143.019 51.2143 143.52C50.5209 144.011 49.7156 144.256 48.7983 144.256ZM48.7983 142.288C49.3103 142.288 49.7529 142.128 50.1263 141.808C50.5103 141.477 50.7983 141.029 50.9903 140.464C51.1929 139.888 51.2943 139.243 51.2943 138.528C51.2943 137.419 51.0703 136.517 50.6223 135.824C50.1743 135.12 49.5663 134.768 48.7983 134.768C48.0409 134.768 47.4383 135.12 46.9903 135.824C46.5423 136.528 46.3183 137.429 46.3183 138.528C46.3183 139.243 46.4143 139.888 46.6063 140.464C46.8089 141.029 47.0969 141.477 47.4703 141.808C47.8543 142.128 48.2969 142.288 48.7983 142.288ZM57.6751 138.272C57.1418 138.272 56.6565 138.149 56.2191 137.904C55.7925 137.659 55.4565 137.328 55.2111 136.912C54.9658 136.496 54.8431 136.037 54.8431 135.536C54.8431 135.035 54.9658 134.576 55.2111 134.16C55.4565 133.744 55.7925 133.413 56.2191 133.168C56.6565 132.923 57.1418 132.8 57.6751 132.8C58.1978 132.8 58.6725 132.923 59.0991 133.168C59.5365 133.413 59.8778 133.744 60.1231 134.16C60.3685 134.576 60.4911 135.035 60.4911 135.536C60.4911 136.037 60.3685 136.496 60.1231 136.912C59.8778 137.328 59.5365 137.659 59.0991 137.904C58.6725 138.149 58.1978 138.272 57.6751 138.272ZM56.8751 143.408L63.9791 132.8L65.2431 133.648L58.1391 144.256L56.8751 143.408ZM57.6751 136.704C57.9951 136.704 58.2565 136.597 58.4591 136.384C58.6725 136.171 58.7791 135.888 58.7791 135.536C58.7791 135.184 58.6725 134.901 58.4591 134.688C58.2565 134.475 57.9951 134.368 57.6751 134.368C57.3658 134.368 57.1045 134.48 56.8911 134.704C56.6778 134.917 56.5711 135.195 56.5711 135.536C56.5711 135.877 56.6778 136.16 56.8911 136.384C57.1045 136.597 57.3658 136.704 57.6751 136.704ZM64.4591 144.256C63.9258 144.256 63.4405 144.133 63.0031 143.888C62.5765 143.643 62.2405 143.312 61.9951 142.896C61.7498 142.48 61.6271 142.021 61.6271 141.52C61.6271 141.019 61.7498 140.56 61.9951 140.144C62.2405 139.728 62.5765 139.397 63.0031 139.152C63.4405 138.907 63.9258 138.784 64.4591 138.784C64.9818 138.784 65.4565 138.907 65.8831 139.152C66.3205 139.397 66.6618 139.728 66.9071 140.144C67.1525 140.56 67.2751 141.019 67.2751 141.52C67.2751 142.021 67.1525 142.48 66.9071 142.896C66.6618 143.312 66.3205 143.643 65.8831 143.888C65.4565 144.133 64.9818 144.256 64.4591 144.256ZM64.4591 142.688C64.7791 142.688 65.0405 142.581 65.2431 142.368C65.4565 142.155 65.5631 141.872 65.5631 141.52C65.5631 141.168 65.4565 140.885 65.2431 140.672C65.0405 140.459 64.7791 140.352 64.4591 140.352C64.1498 140.352 63.8885 140.464 63.6751 140.688C63.4618 140.901 63.3551 141.179 63.3551 141.52C63.3551 141.861 63.4618 142.144 63.6751 142.368C63.8885 142.581 64.1498 142.688 64.4591 142.688Z" fill="#FF2F5E"/>
<circle r="8.5" transform="matrix(1 0 0 -1 9 139)" stroke="#FF2F5E"/>
<path d="M5.5 137L8.1482 140.405C8.56725 140.944 9.39099 140.914 9.76961 140.346L12 137" stroke="#FF2F5E"/>
<path d="M108.105 145.16C107.578 145.16 107.118 145.017 106.725 144.73C106.332 144.437 106.055 144.027 105.895 143.5L106.695 143.17C106.935 143.957 107.405 144.35 108.105 144.35C108.498 144.35 108.812 144.213 109.045 143.94C109.285 143.667 109.405 143.307 109.405 142.86V137.84H110.255V142.79C110.255 143.29 110.162 143.72 109.975 144.08C109.795 144.433 109.542 144.703 109.215 144.89C108.895 145.07 108.525 145.16 108.105 145.16ZM113.198 145.16C112.824 145.16 112.491 145.087 112.198 144.94C111.904 144.793 111.678 144.593 111.518 144.34C111.358 144.08 111.278 143.787 111.278 143.46C111.278 142.92 111.481 142.5 111.888 142.2C112.294 141.893 112.808 141.74 113.428 141.74C113.734 141.74 114.018 141.773 114.278 141.84C114.544 141.907 114.748 141.983 114.888 142.07V141.76C114.888 141.38 114.754 141.077 114.488 140.85C114.221 140.617 113.884 140.5 113.478 140.5C113.191 140.5 112.928 140.563 112.688 140.69C112.448 140.81 112.258 140.98 112.118 141.2L111.478 140.72C111.678 140.413 111.951 140.173 112.298 140C112.651 139.827 113.041 139.74 113.468 139.74C114.161 139.74 114.704 139.923 115.098 140.29C115.498 140.65 115.698 141.143 115.698 141.77V145H114.888V144.27H114.848C114.701 144.517 114.481 144.727 114.188 144.9C113.894 145.073 113.564 145.16 113.198 145.16ZM113.278 144.41C113.564 144.41 113.831 144.337 114.078 144.19C114.324 144.043 114.521 143.847 114.668 143.6C114.814 143.353 114.888 143.083 114.888 142.79C114.728 142.683 114.531 142.597 114.298 142.53C114.064 142.463 113.818 142.43 113.558 142.43C113.091 142.43 112.738 142.527 112.498 142.72C112.264 142.913 112.148 143.163 112.148 143.47C112.148 143.75 112.254 143.977 112.468 144.15C112.681 144.323 112.951 144.41 113.278 144.41ZM116.88 139.9H117.69V140.65H117.73C117.87 140.397 118.094 140.183 118.4 140.01C118.707 139.83 119.034 139.74 119.38 139.74C119.994 139.74 120.46 139.92 120.78 140.28C121.107 140.633 121.27 141.117 121.27 141.73V145H120.42V141.86C120.42 141.387 120.307 141.043 120.08 140.83C119.854 140.617 119.544 140.51 119.15 140.51C118.877 140.51 118.63 140.587 118.41 140.74C118.197 140.893 118.03 141.097 117.91 141.35C117.79 141.597 117.73 141.857 117.73 142.13V145H116.88V139.9Z" fill="#797C8C"/>
<path d="M363.873 137.84H364.833L367.553 145H366.623L365.903 143.03H362.813L362.093 145H361.163L363.873 137.84ZM365.613 142.23L364.663 139.65L364.373 138.88H364.333L364.053 139.65L363.103 142.23H365.613ZM369.929 145.16C369.315 145.16 368.845 144.98 368.519 144.62C368.199 144.26 368.039 143.757 368.039 143.11V139.9H368.889V142.98C368.889 143.467 368.999 143.823 369.219 144.05C369.439 144.277 369.735 144.39 370.109 144.39C370.395 144.39 370.649 144.313 370.869 144.16C371.095 144.007 371.269 143.807 371.389 143.56C371.515 143.313 371.579 143.053 371.579 142.78V139.9H372.429V145H371.619V144.26H371.579C371.439 144.513 371.215 144.727 370.909 144.9C370.602 145.073 370.275 145.16 369.929 145.16ZM375.875 147.32C375.275 147.32 374.779 147.18 374.385 146.9C373.999 146.62 373.739 146.283 373.605 145.89L374.375 145.56C374.489 145.853 374.675 146.09 374.935 146.27C375.202 146.457 375.515 146.55 375.875 146.55C376.402 146.55 376.809 146.397 377.095 146.09C377.389 145.783 377.535 145.35 377.535 144.79V144.22H377.495C377.329 144.48 377.092 144.693 376.785 144.86C376.485 145.02 376.142 145.1 375.755 145.1C375.315 145.1 374.912 144.987 374.545 144.76C374.185 144.533 373.899 144.217 373.685 143.81C373.472 143.403 373.365 142.94 373.365 142.42C373.365 141.907 373.472 141.447 373.685 141.04C373.899 140.627 374.185 140.307 374.545 140.08C374.912 139.853 375.315 139.74 375.755 139.74C376.142 139.74 376.485 139.823 376.785 139.99C377.092 140.15 377.329 140.363 377.495 140.63H377.535V139.9H378.345V144.8C378.345 145.62 378.119 146.243 377.665 146.67C377.212 147.103 376.615 147.32 375.875 147.32ZM375.875 144.33C376.182 144.33 376.459 144.253 376.705 144.1C376.959 143.947 377.159 143.727 377.305 143.44C377.459 143.153 377.535 142.813 377.535 142.42C377.535 142.02 377.459 141.677 377.305 141.39C377.159 141.103 376.959 140.887 376.705 140.74C376.459 140.587 376.182 140.51 375.875 140.51C375.569 140.51 375.289 140.587 375.035 140.74C374.782 140.893 374.579 141.113 374.425 141.4C374.279 141.687 374.205 142.027 374.205 142.42C374.205 142.813 374.279 143.157 374.425 143.45C374.579 143.737 374.782 143.957 375.035 144.11C375.289 144.257 375.569 144.33 375.875 144.33Z" fill="#797C8C"/>
<path d="M143.011 137.84H147.151V138.65H143.851V141.1H146.831V141.9H143.851V145H143.011V137.84ZM149.589 145.16C149.215 145.16 148.882 145.087 148.589 144.94C148.295 144.793 148.069 144.593 147.909 144.34C147.749 144.08 147.669 143.787 147.669 143.46C147.669 142.92 147.872 142.5 148.279 142.2C148.685 141.893 149.199 141.74 149.819 141.74C150.125 141.74 150.409 141.773 150.669 141.84C150.935 141.907 151.139 141.983 151.279 142.07V141.76C151.279 141.38 151.145 141.077 150.879 140.85C150.612 140.617 150.275 140.5 149.869 140.5C149.582 140.5 149.319 140.563 149.079 140.69C148.839 140.81 148.649 140.98 148.509 141.2L147.869 140.72C148.069 140.413 148.342 140.173 148.689 140C149.042 139.827 149.432 139.74 149.859 139.74C150.552 139.74 151.095 139.923 151.489 140.29C151.889 140.65 152.089 141.143 152.089 141.77V145H151.279V144.27H151.239C151.092 144.517 150.872 144.727 150.579 144.9C150.285 145.073 149.955 145.16 149.589 145.16ZM149.669 144.41C149.955 144.41 150.222 144.337 150.469 144.19C150.715 144.043 150.912 143.847 151.059 143.6C151.205 143.353 151.279 143.083 151.279 142.79C151.119 142.683 150.922 142.597 150.689 142.53C150.455 142.463 150.209 142.43 149.949 142.43C149.482 142.43 149.129 142.527 148.889 142.72C148.655 142.913 148.539 143.163 148.539 143.47C148.539 143.75 148.645 143.977 148.859 144.15C149.072 144.323 149.342 144.41 149.669 144.41ZM155.861 145.16C155.474 145.16 155.124 145.073 154.811 144.9C154.504 144.72 154.274 144.503 154.121 144.25H154.081V145H153.271V137.84H154.121V139.95L154.081 140.66H154.121C154.274 140.4 154.504 140.183 154.811 140.01C155.124 139.83 155.474 139.74 155.861 139.74C156.314 139.74 156.728 139.857 157.101 140.09C157.474 140.323 157.768 140.647 157.981 141.06C158.194 141.473 158.301 141.937 158.301 142.45C158.301 142.97 158.194 143.437 157.981 143.85C157.768 144.257 157.474 144.577 157.101 144.81C156.728 145.043 156.314 145.16 155.861 145.16ZM155.761 144.39C156.054 144.39 156.331 144.31 156.591 144.15C156.851 143.99 157.058 143.763 157.211 143.47C157.371 143.17 157.451 142.83 157.451 142.45C157.451 142.07 157.371 141.733 157.211 141.44C157.058 141.14 156.851 140.91 156.591 140.75C156.331 140.59 156.054 140.51 155.761 140.51C155.468 140.51 155.191 140.59 154.931 140.75C154.671 140.91 154.464 141.137 154.311 141.43C154.158 141.723 154.081 142.063 154.081 142.45C154.081 142.837 154.158 143.177 154.311 143.47C154.464 143.763 154.671 143.99 154.931 144.15C155.191 144.31 155.468 144.39 155.761 144.39Z" fill="#797C8C"/>
<path d="M400.873 145.16C400.313 145.16 399.8 144.99 399.333 144.65C398.866 144.31 398.546 143.833 398.373 143.22L399.183 142.89C399.296 143.317 399.506 143.667 399.813 143.94C400.12 144.213 400.48 144.35 400.893 144.35C401.306 144.35 401.656 144.24 401.943 144.02C402.23 143.793 402.373 143.487 402.373 143.1C402.373 142.767 402.25 142.493 402.003 142.28C401.763 142.06 401.366 141.857 400.813 141.67L400.363 141.51C399.856 141.33 399.443 141.093 399.123 140.8C398.803 140.507 398.643 140.1 398.643 139.58C398.643 139.24 398.736 138.927 398.923 138.64C399.11 138.347 399.37 138.113 399.703 137.94C400.036 137.767 400.41 137.68 400.823 137.68C401.236 137.68 401.596 137.757 401.903 137.91C402.21 138.063 402.453 138.25 402.633 138.47C402.82 138.69 402.95 138.907 403.023 139.12L402.223 139.46C402.156 139.213 402.003 138.99 401.763 138.79C401.53 138.59 401.22 138.49 400.833 138.49C400.466 138.49 400.153 138.593 399.893 138.8C399.633 139.007 399.503 139.267 399.503 139.58C399.503 139.86 399.613 140.09 399.833 140.27C400.053 140.443 400.386 140.607 400.833 140.76L401.303 140.92C401.91 141.14 402.383 141.417 402.723 141.75C403.063 142.077 403.233 142.523 403.233 143.09C403.233 143.55 403.113 143.937 402.873 144.25C402.64 144.563 402.343 144.793 401.983 144.94C401.623 145.087 401.253 145.16 400.873 145.16ZM406.578 145.16C406.092 145.16 405.655 145.043 405.268 144.81C404.882 144.577 404.578 144.257 404.358 143.85C404.145 143.437 404.038 142.973 404.038 142.46C404.038 141.967 404.138 141.513 404.338 141.1C404.545 140.687 404.835 140.357 405.208 140.11C405.582 139.863 406.015 139.74 406.508 139.74C407.008 139.74 407.442 139.853 407.808 140.08C408.175 140.3 408.455 140.607 408.648 141C408.848 141.393 408.948 141.843 408.948 142.35C408.948 142.45 408.938 142.537 408.918 142.61H404.888C404.908 142.997 405.002 143.323 405.168 143.59C405.335 143.857 405.545 144.057 405.798 144.19C406.058 144.323 406.328 144.39 406.608 144.39C407.262 144.39 407.765 144.083 408.118 143.47L408.838 143.82C408.618 144.233 408.318 144.56 407.938 144.8C407.565 145.04 407.112 145.16 406.578 145.16ZM408.048 141.91C408.035 141.697 407.975 141.483 407.868 141.27C407.762 141.057 407.592 140.877 407.358 140.73C407.132 140.583 406.845 140.51 406.498 140.51C406.098 140.51 405.758 140.64 405.478 140.9C405.205 141.153 405.025 141.49 404.938 141.91H408.048ZM409.903 139.9H410.713V140.66H410.753C410.907 140.4 411.137 140.183 411.443 140.01C411.757 139.83 412.107 139.74 412.493 139.74C412.947 139.74 413.36 139.857 413.733 140.09C414.107 140.323 414.4 140.647 414.613 141.06C414.827 141.473 414.933 141.937 414.933 142.45C414.933 142.97 414.827 143.437 414.613 143.85C414.4 144.257 414.107 144.577 413.733 144.81C413.36 145.043 412.947 145.16 412.493 145.16C412.107 145.16 411.757 145.073 411.443 144.9C411.137 144.72 410.907 144.503 410.753 144.25H410.713L410.753 144.95V147.16H409.903V139.9ZM412.393 144.39C412.687 144.39 412.963 144.31 413.223 144.15C413.483 143.99 413.69 143.763 413.843 143.47C414.003 143.17 414.083 142.83 414.083 142.45C414.083 142.07 414.003 141.733 413.843 141.44C413.69 141.14 413.483 140.91 413.223 140.75C412.963 140.59 412.687 140.51 412.393 140.51C412.1 140.51 411.823 140.59 411.563 140.75C411.303 140.91 411.097 141.137 410.943 141.43C410.79 141.723 410.713 142.063 410.713 142.45C410.713 142.837 410.79 143.177 410.943 143.47C411.097 143.763 411.303 143.99 411.563 144.15C411.823 144.31 412.1 144.39 412.393 144.39Z" fill="#797C8C"/>
<path d="M178.56 137.84H179.79L182.07 143.71H182.11L184.39 137.84H185.62V145H184.78V140.45L184.82 139.09H184.78L182.44 145H181.74L179.4 139.09H179.36L179.4 140.45V145H178.56V137.84ZM188.536 145.16C188.163 145.16 187.829 145.087 187.536 144.94C187.243 144.793 187.016 144.593 186.856 144.34C186.696 144.08 186.616 143.787 186.616 143.46C186.616 142.92 186.819 142.5 187.226 142.2C187.633 141.893 188.146 141.74 188.766 141.74C189.073 141.74 189.356 141.773 189.616 141.84C189.883 141.907 190.086 141.983 190.226 142.07V141.76C190.226 141.38 190.093 141.077 189.826 140.85C189.559 140.617 189.223 140.5 188.816 140.5C188.529 140.5 188.266 140.563 188.026 140.69C187.786 140.81 187.596 140.98 187.456 141.2L186.816 140.72C187.016 140.413 187.289 140.173 187.636 140C187.989 139.827 188.379 139.74 188.806 139.74C189.499 139.74 190.043 139.923 190.436 140.29C190.836 140.65 191.036 141.143 191.036 141.77V145H190.226V144.27H190.186C190.039 144.517 189.819 144.727 189.526 144.9C189.233 145.073 188.903 145.16 188.536 145.16ZM188.616 144.41C188.903 144.41 189.169 144.337 189.416 144.19C189.663 144.043 189.859 143.847 190.006 143.6C190.153 143.353 190.226 143.083 190.226 142.79C190.066 142.683 189.869 142.597 189.636 142.53C189.403 142.463 189.156 142.43 188.896 142.43C188.429 142.43 188.076 142.527 187.836 142.72C187.603 142.913 187.486 143.163 187.486 143.47C187.486 143.75 187.593 143.977 187.806 144.15C188.019 144.323 188.289 144.41 188.616 144.41ZM192.219 139.9H193.029V140.72H193.069C193.169 140.44 193.362 140.21 193.649 140.03C193.935 139.843 194.235 139.75 194.549 139.75C194.782 139.75 194.982 139.783 195.149 139.85V140.77C194.935 140.663 194.695 140.61 194.429 140.61C194.182 140.61 193.955 140.68 193.749 140.82C193.542 140.96 193.375 141.15 193.249 141.39C193.129 141.623 193.069 141.877 193.069 142.15V145H192.219V139.9Z" fill="#797C8C"/>
<path d="M218.463 137.84H219.423L222.143 145H221.213L220.493 143.03H217.403L216.683 145H215.753L218.463 137.84ZM220.203 142.23L219.253 139.65L218.963 138.88H218.923L218.643 139.65L217.693 142.23H220.203ZM222.932 139.9H223.742V140.66H223.782C223.935 140.4 224.165 140.183 224.472 140.01C224.785 139.83 225.135 139.74 225.522 139.74C225.975 139.74 226.388 139.857 226.762 140.09C227.135 140.323 227.428 140.647 227.642 141.06C227.855 141.473 227.962 141.937 227.962 142.45C227.962 142.97 227.855 143.437 227.642 143.85C227.428 144.257 227.135 144.577 226.762 144.81C226.388 145.043 225.975 145.16 225.522 145.16C225.135 145.16 224.785 145.073 224.472 144.9C224.165 144.72 223.935 144.503 223.782 144.25H223.742L223.782 144.95V147.16H222.932V139.9ZM225.422 144.39C225.715 144.39 225.992 144.31 226.252 144.15C226.512 143.99 226.718 143.763 226.872 143.47C227.032 143.17 227.112 142.83 227.112 142.45C227.112 142.07 227.032 141.733 226.872 141.44C226.718 141.14 226.512 140.91 226.252 140.75C225.992 140.59 225.715 140.51 225.422 140.51C225.128 140.51 224.852 140.59 224.592 140.75C224.332 140.91 224.125 141.137 223.972 141.43C223.818 141.723 223.742 142.063 223.742 142.45C223.742 142.837 223.818 143.177 223.972 143.47C224.125 143.763 224.332 143.99 224.592 144.15C224.852 144.31 225.128 144.39 225.422 144.39ZM228.899 139.9H229.709V140.72H229.749C229.849 140.44 230.043 140.21 230.329 140.03C230.616 139.843 230.916 139.75 231.229 139.75C231.463 139.75 231.663 139.783 231.829 139.85V140.77C231.616 140.663 231.376 140.61 231.109 140.61C230.863 140.61 230.636 140.68 230.429 140.82C230.223 140.96 230.056 141.15 229.929 141.39C229.809 141.623 229.749 141.877 229.749 142.15V145H228.899V139.9Z" fill="#797C8C"/>
<path d="M251.857 137.84H253.087L255.367 143.71H255.407L257.687 137.84H258.917V145H258.077V140.45L258.117 139.09H258.077L255.737 145H255.037L252.697 139.09H252.657L252.697 140.45V145H251.857V137.84ZM261.832 145.16C261.459 145.16 261.126 145.087 260.832 144.94C260.539 144.793 260.312 144.593 260.152 144.34C259.992 144.08 259.912 143.787 259.912 143.46C259.912 142.92 260.116 142.5 260.522 142.2C260.929 141.893 261.442 141.74 262.062 141.74C262.369 141.74 262.652 141.773 262.912 141.84C263.179 141.907 263.382 141.983 263.522 142.07V141.76C263.522 141.38 263.389 141.077 263.122 140.85C262.856 140.617 262.519 140.5 262.112 140.5C261.826 140.5 261.562 140.563 261.322 140.69C261.082 140.81 260.892 140.98 260.752 141.2L260.112 140.72C260.312 140.413 260.586 140.173 260.932 140C261.286 139.827 261.676 139.74 262.102 139.74C262.796 139.74 263.339 139.923 263.732 140.29C264.132 140.65 264.332 141.143 264.332 141.77V145H263.522V144.27H263.482C263.336 144.517 263.116 144.727 262.822 144.9C262.529 145.073 262.199 145.16 261.832 145.16ZM261.912 144.41C262.199 144.41 262.466 144.337 262.712 144.19C262.959 144.043 263.156 143.847 263.302 143.6C263.449 143.353 263.522 143.083 263.522 142.79C263.362 142.683 263.166 142.597 262.932 142.53C262.699 142.463 262.452 142.43 262.192 142.43C261.726 142.43 261.372 142.527 261.132 142.72C260.899 142.913 260.782 143.163 260.782 143.47C260.782 143.75 260.889 143.977 261.102 144.15C261.316 144.323 261.586 144.41 261.912 144.41ZM266.977 144.68L264.867 139.9H265.787L267.387 143.69H267.407L268.947 139.9H269.867L266.717 147.16H265.837L266.977 144.68Z" fill="#797C8C"/>
<path d="M291.451 145.16C290.924 145.16 290.464 145.017 290.071 144.73C289.677 144.437 289.401 144.027 289.241 143.5L290.041 143.17C290.281 143.957 290.751 144.35 291.451 144.35C291.844 144.35 292.157 144.213 292.391 143.94C292.631 143.667 292.751 143.307 292.751 142.86V137.84H293.601V142.79C293.601 143.29 293.507 143.72 293.321 144.08C293.141 144.433 292.887 144.703 292.561 144.89C292.241 145.07 291.871 145.16 291.451 145.16ZM296.666 145.16C296.052 145.16 295.582 144.98 295.256 144.62C294.936 144.26 294.776 143.757 294.776 143.11V139.9H295.626V142.98C295.626 143.467 295.736 143.823 295.956 144.05C296.176 144.277 296.472 144.39 296.846 144.39C297.132 144.39 297.386 144.313 297.606 144.16C297.832 144.007 298.006 143.807 298.126 143.56C298.252 143.313 298.316 143.053 298.316 142.78V139.9H299.166V145H298.356V144.26H298.316C298.176 144.513 297.952 144.727 297.646 144.9C297.339 145.073 297.012 145.16 296.666 145.16ZM300.421 139.9H301.231V140.65H301.271C301.411 140.397 301.635 140.183 301.941 140.01C302.248 139.83 302.575 139.74 302.921 139.74C303.535 139.74 304.001 139.92 304.321 140.28C304.648 140.633 304.811 141.117 304.811 141.73V145H303.961V141.86C303.961 141.387 303.848 141.043 303.621 140.83C303.395 140.617 303.085 140.51 302.691 140.51C302.418 140.51 302.171 140.587 301.951 140.74C301.738 140.893 301.571 141.097 301.451 141.35C301.331 141.597 301.271 141.857 301.271 142.13V145H300.421V139.9Z" fill="#797C8C"/>
<path d="M329.887 145.16C329.361 145.16 328.901 145.017 328.507 144.73C328.114 144.437 327.837 144.027 327.677 143.5L328.477 143.17C328.717 143.957 329.187 144.35 329.887 144.35C330.281 144.35 330.594 144.213 330.827 143.94C331.067 143.667 331.187 143.307 331.187 142.86V137.84H332.037V142.79C332.037 143.29 331.944 143.72 331.757 144.08C331.577 144.433 331.324 144.703 330.997 144.89C330.677 145.07 330.307 145.16 329.887 145.16ZM335.102 145.16C334.489 145.16 334.019 144.98 333.692 144.62C333.372 144.26 333.212 143.757 333.212 143.11V139.9H334.062V142.98C334.062 143.467 334.172 143.823 334.392 144.05C334.612 144.277 334.909 144.39 335.282 144.39C335.569 144.39 335.822 144.313 336.042 144.16C336.269 144.007 336.442 143.807 336.562 143.56C336.689 143.313 336.752 143.053 336.752 142.78V139.9H337.602V145H336.792V144.26H336.752C336.612 144.513 336.389 144.727 336.082 144.9C335.776 145.073 335.449 145.16 335.102 145.16ZM338.858 137.84H339.708V145H338.858V137.84Z" fill="#797C8C"/>
<path d="M165.5 92C142.634 70.1734 116.249 80.4933 104 86.5V126H416V59.5C394.383 75.0172 385.5 86.5 338.18 64.4318C291.201 42.5224 274.771 69.9379 256.758 89.4595C238.744 108.981 198.5 123.5 165.5 92Z" fill="url(#paint0_linear)"/>
<path d="M104 86.6532C116.249 80.609 146.513 73.9603 169.57 95.7197C198.393 122.919 238.744 109.319 256.758 89.6754C274.771 70.0315 292.785 39.3064 338.18 64.4909C383.575 89.6754 394.383 74.5647 416 58.9503" stroke="url(#paint1_linear)" stroke-width="3" stroke-linecap="round" stroke-linejoin="round"/>
<g filter="url(#filter0_d)">
<circle cx="163.5" cy="89.5" r="5.5" fill="white"/>
<circle cx="163.5" cy="89.5" r="4" stroke="#FF2F5E" stroke-width="3"/>
</g>
<rect x="126" y="41" width="74" height="38" rx="4" fill="#141736"/>
<path d="M144.54 62.98C144.788 62.732 145.28 62.236 146.016 61.492C146.752 60.74 147.264 60.208 147.552 59.896C147.96 59.456 148.236 59.112 148.38 58.864C148.524 58.616 148.596 58.316 148.596 57.964C148.596 57.724 148.532 57.5 148.404 57.292C148.284 57.076 148.104 56.904 147.864 56.776C147.632 56.64 147.352 56.572 147.024 56.572C146.592 56.572 146.244 56.7 145.98 56.956C145.724 57.204 145.556 57.476 145.476 57.772L144.54 57.4C144.62 57.144 144.764 56.88 144.972 56.608C145.18 56.328 145.46 56.092 145.812 55.9C146.164 55.7 146.58 55.6 147.06 55.6C147.564 55.6 148.008 55.708 148.392 55.924C148.784 56.14 149.088 56.428 149.304 56.788C149.52 57.148 149.628 57.536 149.628 57.952C149.628 58.792 149.188 59.66 148.308 60.556L145.848 63.028H149.724V64H144.54V62.98ZM151.061 55.408H152.081V57.94L152.033 58.78H152.081C152.249 58.468 152.513 58.208 152.873 58C153.241 57.792 153.641 57.688 154.073 57.688C154.817 57.688 155.385 57.908 155.777 58.348C156.169 58.78 156.365 59.356 156.365 60.076V64H155.345V60.232C155.345 59.68 155.205 59.272 154.925 59.008C154.645 58.744 154.281 58.612 153.833 58.612C153.513 58.612 153.217 58.708 152.945 58.9C152.681 59.092 152.469 59.34 152.309 59.644C152.157 59.948 152.081 60.264 152.081 60.592V64H151.061V55.408ZM162.375 57.22L160.935 58.252L160.407 57.472L162.747 55.792H163.395V64H162.375V57.22ZM165.083 62.98C165.331 62.732 165.823 62.236 166.559 61.492C167.295 60.74 167.807 60.208 168.095 59.896C168.503 59.456 168.779 59.112 168.923 58.864C169.067 58.616 169.139 58.316 169.139 57.964C169.139 57.724 169.075 57.5 168.947 57.292C168.827 57.076 168.647 56.904 168.407 56.776C168.175 56.64 167.895 56.572 167.567 56.572C167.135 56.572 166.787 56.7 166.523 56.956C166.267 57.204 166.099 57.476 166.019 57.772L165.083 57.4C165.163 57.144 165.307 56.88 165.515 56.608C165.723 56.328 166.003 56.092 166.355 55.9C166.707 55.7 167.123 55.6 167.603 55.6C168.107 55.6 168.551 55.708 168.935 55.924C169.327 56.14 169.631 56.428 169.847 56.788C170.063 57.148 170.171 57.536 170.171 57.952C170.171 58.792 169.731 59.66 168.851 60.556L166.391 63.028H170.267V64H165.083V62.98ZM171.604 57.88H172.576V58.78H172.624C172.8 58.468 173.064 58.208 173.416 58C173.768 57.792 174.14 57.688 174.532 57.688C174.98 57.688 175.368 57.796 175.696 58.012C176.032 58.228 176.272 58.516 176.416 58.876C176.632 58.516 176.916 58.228 177.268 58.012C177.628 57.796 178.044 57.688 178.516 57.688C179.22 57.688 179.748 57.904 180.1 58.336C180.46 58.76 180.64 59.34 180.64 60.076V64H179.632V60.232C179.632 59.664 179.516 59.252 179.284 58.996C179.052 58.74 178.708 58.612 178.252 58.612C177.948 58.612 177.672 58.7 177.424 58.876C177.176 59.052 176.98 59.288 176.836 59.584C176.7 59.88 176.632 60.2 176.632 60.544V64H175.612V60.244C175.612 59.668 175.496 59.252 175.264 58.996C175.032 58.74 174.692 58.612 174.244 58.612C173.94 58.612 173.664 58.704 173.416 58.888C173.168 59.064 172.972 59.304 172.828 59.608C172.692 59.904 172.624 60.224 172.624 60.568V64H171.604V57.88Z" fill="white"/>
<rect x="157.136" y="78.5" width="9" height="9" transform="rotate(-45 157.136 78.5)" fill="#141736"/>
<defs>
<filter id="filter0_d" x="151" y="81" width="25" height="25" filterUnits="userSpaceOnUse" color-interpolation-filters="sRGB">
<feFlood flood-opacity="0" result="BackgroundImageFix"/>
<feColorMatrix in="SourceAlpha" type="matrix" values="0 0 0 0 0 0 0 0 0 0 0 0 0 0 0 0 0 0 127 0"/>
<feOffset dy="4"/>
<feGaussianBlur stdDeviation="3.5"/>
<feColorMatrix type="matrix" values="0 0 0 0 1 0 0 0 0 0.184314 0 0 0 0 0.368627 0 0 0 0.4 0"/>
<feBlend mode="normal" in2="BackgroundImageFix" result="effect1_dropShadow"/>
<feBlend mode="normal" in="SourceGraphic" in2="effect1_dropShadow" result="shape"/>
</filter>
<linearGradient id="paint0_linear" x1="260" y1="55" x2="260" y2="126" gradientUnits="userSpaceOnUse">
<stop stop-color="#FF2F5E" stop-opacity="0.12"/>
<stop offset="1" stop-color="#FF2E5E" stop-opacity="0"/>
</linearGradient>
<linearGradient id="paint1_linear" x1="108.727" y1="70" x2="409.142" y2="42.0316" gradientUnits="userSpaceOnUse">
<stop stop-color="#FFD8E1"/>
<stop offset="0.213542" stop-color="#FF2E5D"/>
<stop offset="0.510417" stop-color="#FF2E5D"/>
<stop offset="0.822917" stop-color="#FF2E5D"/>
<stop offset="1" stop-color="#FFD8E1"/>
</linearGradient>
</defs>
</svg>
