<svg width="60" height="60" viewBox="0 0 60 60" fill="none" xmlns="http://www.w3.org/2000/svg">
<circle opacity="0.1" cx="30" cy="30" r="30" fill="#FF2F5E"/>
<path d="M24.0319 38.4099C25.7112 39.2374 27.5957 39.6689 29.4801 39.7049C29.5734 39.7049 29.6854 39.7049 29.7787 39.7049C31.6818 39.7049 33.5663 39.3092 35.2829 38.5178C36.85 37.7983 38.2682 36.7191 39.3133 35.3701C40.5072 33.823 41.1229 31.9706 41.1229 30.0458C41.1229 28.8227 41.1229 27.6176 41.1229 26.3945C41.1229 25.0635 41.1229 23.7504 41.1229 22.4194C41.1229 21.9517 41.1229 21.4841 41.1229 21.0344C41.1229 20.189 40.2462 19.6314 39.4437 19.9372L35.1896 21.646C34.9097 21.7539 34.5925 21.7719 34.3127 21.6639C32.9319 21.1423 31.402 20.8725 29.7787 20.8725C28.1554 20.8725 26.6254 21.1603 25.2447 21.6639C24.9648 21.7719 24.6476 21.7539 24.3678 21.646L20.1137 19.9913C19.3114 19.6676 18.4344 20.2432 18.4344 21.0885C18.4344 21.7181 18.4344 22.3656 18.4344 22.9951C18.4344 24.3082 18.4344 25.6212 18.4344 26.9523C18.4344 28.0674 18.4344 29.1646 18.4344 30.2798C18.4344 32.0605 19.0315 33.7873 20.095 35.2262C21.1026 36.5752 22.4833 37.6544 24.0319 38.4099ZM33.9208 30.082C34.947 30.082 35.7867 30.8914 35.7867 31.8806C35.7867 32.8699 34.947 33.6793 33.9208 33.6793C32.8946 33.6793 32.055 32.8699 32.055 31.8806C32.055 30.8736 32.8946 30.082 33.9208 30.082ZM25.6365 30.082C26.6627 30.082 27.5024 30.8914 27.5024 31.8806C27.5024 32.8699 26.6627 33.6793 25.6365 33.6793C24.6103 33.6793 23.7707 32.8699 23.7707 31.8806C23.7707 30.8736 24.6103 30.082 25.6365 30.082Z" fill="#FF2F5E"/>
</svg>
