<svg width="60" height="60" viewBox="0 0 60 60" fill="none" xmlns="http://www.w3.org/2000/svg">
<circle opacity="0.1" cx="30" cy="30" r="30" fill="#7947F7"/>
<path d="M17.2436 31.6391C18.9461 33.121 20.1342 35.1051 20.637 37.3055C20.8171 38.039 21.2557 38.683 21.8723 39.1194C22.4888 39.5557 23.242 39.7551 23.9937 39.6811C26.1939 39.5475 28.3797 40.1163 30.2358 41.3054C30.8494 41.7009 31.5855 41.8606 32.3078 41.755C33.0301 41.6495 33.6897 41.2857 34.1645 40.7312C35.6026 39.0607 37.5342 37.8901 39.6806 37.3885C40.4221 37.2443 41.0867 36.8376 41.5526 36.2431C42.0185 35.6486 42.2544 34.906 42.2171 34.1516C42.0691 31.8993 42.6398 29.6582 43.8469 27.7511C44.2353 27.1353 44.391 26.401 44.2857 25.6806C44.1804 24.9602 43.8211 24.3011 43.2727 23.8223C41.5703 22.3404 40.3821 20.3563 39.8793 18.1559C39.6992 17.4224 39.2606 16.7784 38.6441 16.342C38.0275 15.9057 37.2743 15.7063 36.5226 15.7803C34.3224 15.9139 32.1366 15.3451 30.2806 14.156C29.667 13.7605 28.9308 13.6008 28.2085 13.7064C27.4862 13.8119 26.8266 14.1757 26.3518 14.7302C24.9137 16.4007 22.9821 17.5712 20.8357 18.0729C20.0942 18.2171 19.4296 18.6238 18.9637 19.2183C18.4978 19.8128 18.2619 20.5554 18.2992 21.3098C18.4472 23.5621 17.8766 25.8032 16.6694 27.7103C16.281 28.3261 16.1253 29.0604 16.2306 29.7808C16.3359 30.5012 16.6952 31.1603 17.2436 31.6391ZM29.2732 33.2488C31.1339 32.9768 32.8103 31.9769 33.9337 30.4689C35.0571 28.9609 35.5355 27.0685 35.2636 25.2078C35.0572 23.7509 34.3927 22.3975 33.366 21.3435C34.3029 21.802 35.1273 22.4614 35.7805 23.2747C36.4336 24.088 36.8996 25.0352 37.1452 26.049C37.3908 27.0628 37.41 28.1182 37.2014 29.1403C36.9929 30.1623 36.5617 31.1259 35.9385 31.9624C35.3153 32.7989 34.5155 33.4878 33.5959 33.9801C32.6762 34.4725 31.6594 34.7561 30.6178 34.811C29.5761 34.8658 28.5351 34.6904 27.5689 34.2973C26.6027 33.9042 25.735 33.303 25.0275 32.5365C26.3313 33.2185 27.8183 33.468 29.2732 33.2488Z" fill="#7947F7"/>
</svg>
