<svg width="60" height="60" viewBox="0 0 60 60" fill="none" xmlns="http://www.w3.org/2000/svg">
<circle opacity="0.2" cx="30" cy="30" r="30" fill="#9BA6B2"/>
<path d="M20.1473 20.9546H21.9808V20.086C21.9808 19.4889 22.4736 19 23.0755 19H36.8966C37.4985 19 37.9913 19.4889 37.9913 20.086V20.9546H39.8526C41.5771 20.9546 43 22.3662 43 24.0768V26.2488C43 28.2575 41.7684 30.0498 39.8805 30.7826L35.8576 32.3575C35.3926 33.0087 34.8174 33.6069 34.2155 34.1499L32.1084 35.9963V39.0908H33.0385C34.2979 39.0908 35.3103 40.0952 35.3103 41.3445V42.4846C35.3103 42.7837 35.0644 43 34.7907 43H25.1838C24.8823 43 24.6643 42.7561 24.6643 42.4846V41.3445C24.6643 40.0952 25.6767 39.0908 26.9361 39.0908H27.8661L27.8651 36.0226L25.7579 34.1762C25.1282 33.6332 24.5809 33.0361 24.1158 32.3839L20.0929 30.8089C18.2316 30.0496 17 28.2848 17 26.2763V24.1043C17 22.366 18.4229 20.9543 20.1474 20.9543L20.1473 20.9546ZM39.086 28.7464C40.1263 28.3391 40.7827 27.3613 40.7827 26.2488V24.0768C40.7827 23.5614 40.3721 23.1541 39.8526 23.1541H38.0191V25.8691C38.0191 27.0909 37.7999 28.285 37.4172 29.3986L39.086 28.7464ZM25.8668 26.113L27.4811 27.6339C27.5356 27.6879 27.5901 27.7972 27.5634 27.8778L27.1529 30.0498C27.0705 30.4846 27.5356 30.8102 27.9194 30.5928L29.8897 29.5344C29.972 29.4803 30.0811 29.4803 30.1634 29.5344L32.1337 30.5928C32.5164 30.8102 32.9548 30.4846 32.9002 30.0498L32.4897 27.8778C32.4619 27.7961 32.5175 27.6879 32.572 27.6339L34.1329 26.113C34.4344 25.8139 34.2697 25.2985 33.8314 25.2444L31.6141 24.9454C31.5318 24.9454 31.4495 24.8637 31.395 24.782L30.4371 22.7999C30.2457 22.4202 29.6983 22.4202 29.507 22.7999L28.5491 24.782C28.5213 24.8637 28.44 24.9178 28.3299 24.9454L26.1126 25.2444C25.7299 25.2985 25.5385 25.814 25.8667 26.113H25.8668ZM19.217 26.2764C19.217 27.3899 19.9013 28.3667 20.9415 28.7739L22.5836 29.4251C22.2009 28.285 21.9817 27.1173 21.9817 25.8956V23.1806H20.1472C19.6276 23.1806 19.2171 23.5879 19.2171 24.1033L19.217 26.2764Z" fill="#9BA6B2"/>
</svg>
